<?xml version="1.0" standalone="no"?>
<!DOCTYPE svg PUBLIC "-//W3C//DTD SVG 1.1//EN"
  "http://www.w3.org/Graphics/SVG/1.1/DTD/svg11.dtd">
<svg width="51.72200012207031mm" height="25.989000320434563mm" viewBox="-72.72200012207031 -9.989000320434569 51.72200012207031 25.989000320434563" xmlns="http://www.w3.org/2000/svg" version="1.1">
	<title>svgOutput</title>
	<desc>made with tinkercad</desc>
<path d="M -25.976999282836914 -8.989000320434569 L -22 -8.989000320434569 L -22 1.1102230246251565e-16 L -22 8.19200038909912 L -22 13.27700042724609 L -22.065000534057617 13.519000053405758 L -22.08963966369629 13.564735412597653 L -22.368572235107422 14.047835350036618 L -22.393878936767578 14.091664314270016 L -22.44325065612793 14.177172660827633 L -22.687496185302734 14.421419143676754 L -22.722063064575195 14.46024131774902 L -22.732999801635742 14.472999572753903 L -23.017345428466797 14.6716775894165 L -23.33176612854004 14.818407058715817 L -23.408613204956055 14.857583999633786 L -23.432308197021484 14.870343208312985 L -23.43433952331543 14.870698928833004 L -23.44952964782715 14.873363494873043 L -24.128591537475586 14.992465972900387 L -24.18000030517578 14.999999999999996 L -24.576000213623047 14.999999999999996 L -25.976999282836914 14.999999999999996 L -32.768001556396484 14.999999999999996 L -65.53600311279297 14.999999999999996 L -71.72200012207031 14.999999999999996 L -71.72200012207031 13.499999999999996 L -65.53600311279297 13.195736885070797 L -32.768001556396484 11.584019660949705 L -25.976999282836914 11.249999999999998 L -25.976999282836914 8.19200038909912 L -25.976999282836914 1.1102230246251565e-16 L -25.976999282836914 -8.989000320434569 z" fill="none" stroke="rgb(255,0,0)" stroke-width="0.001mm" />
</svg>