0
SECTION
2
HEADER
9
$INSUNITS
70
4
0
ENDSEC
0
SECTION
2
TABLES
0
TABLE
2
LTYPE
0
LTYPE
72
65
70
64
2
CONTINUOUS
3
______
73
0
40
0
0
ENDTAB
0
TABLE
2
LAYER
0
ENDTAB
0
ENDSEC
0
SECTION
2
ENTITIES
0
LINE
8
front_outsideCutPath
10
0
20
39
11
0
21
26.0625
0
LINE
8
front_outsideCutPath
10
0
20
26.0625
11
3
21
26.0625
0
LINE
8
front_outsideCutPath
10
3
20
26.0625
11
3
21
15.9375
0
LINE
8
front_outsideCutPath
10
3
20
15.9375
11
0
21
15.9375
0
LINE
8
front_outsideCutPath
10
0
20
15.9375
11
0
21
5.8125
0
LINE
8
front_outsideCutPath
10
0
20
5.8125
11
0
21
3
0
LINE
8
front_outsideCutPath
10
0
20
3
11
13.5625
21
3
0
LINE
8
front_outsideCutPath
10
13.5625
20
3
11
13.5625
21
6
0
LINE
8
front_outsideCutPath
10
13.5625
20
6
11
23.6875
21
6
0
LINE
8
front_outsideCutPath
10
23.6875
20
6
11
23.6875
21
3
0
LINE
8
front_outsideCutPath
10
23.6875
20
3
11
33.8125
21
3
0
LINE
8
front_outsideCutPath
10
33.8125
20
3
11
33.8125
21
6
0
LINE
8
front_outsideCutPath
10
33.8125
20
6
11
43.9375
21
6
0
LINE
8
front_outsideCutPath
10
43.9375
20
6
11
43.9375
21
3
0
LINE
8
front_outsideCutPath
10
43.9375
20
3
11
54.0625
21
3
0
LINE
8
front_outsideCutPath
10
54.0625
20
3
11
54.0625
21
6
0
LINE
8
front_outsideCutPath
10
54.0625
20
6
11
64.1875
21
6
0
LINE
8
front_outsideCutPath
10
64.1875
20
6
11
64.1875
21
3
0
LINE
8
front_outsideCutPath
10
64.1875
20
3
11
74.3125
21
3
0
LINE
8
front_outsideCutPath
10
74.3125
20
3
11
74.3125
21
6
0
LINE
8
front_outsideCutPath
10
74.3125
20
6
11
84.4375
21
6
0
LINE
8
front_outsideCutPath
10
84.4375
20
6
11
84.4375
21
3
0
LINE
8
front_outsideCutPath
10
84.4375
20
3
11
94.5625
21
3
0
LINE
8
front_outsideCutPath
10
94.5625
20
3
11
98
21
3
0
LINE
8
front_outsideCutPath
10
98
20
3
11
98
21
15.9375
0
LINE
8
front_outsideCutPath
10
98
20
15.9375
11
95
21
15.9375
0
LINE
8
front_outsideCutPath
10
95
20
15.9375
11
95
21
26.0625
0
LINE
8
front_outsideCutPath
10
95
20
26.0625
11
98
21
26.0625
0
LINE
8
front_outsideCutPath
10
98
20
26.0625
11
98
21
36.1875
0
LINE
8
front_outsideCutPath
10
98
20
36.1875
11
98
21
39
0
LINE
8
front_outsideCutPath
10
98
20
39
11
0
21
39
0
LINE
8
front_labelLayer
10
43.0357422
20
22.1338653
11
43.0357422
21
21.6803497
0
LINE
8
front_labelLayer
10
43.0357422
20
21.6803497
11
42.0548828
21
21.6803497
0
LINE
8
front_labelLayer
10
42.0548828
20
21.6803497
11
42.0548828
21
18.2807403
0
LINE
8
front_labelLayer
10
42.0548828
20
18.2807403
11
41.4712891
21
18.2807403
0
LINE
8
front_labelLayer
10
41.4712891
20
18.2807403
11
41.4712891
21
21.6803497
0
LINE
8
front_labelLayer
10
41.4712891
20
21.6803497
11
40.7822266
21
21.6803497
0
LINE
8
front_labelLayer
10
40.7822266
20
21.6803497
11
40.7822266
21
21.9440216
0
LINE
8
front_labelLayer
10
40.7822266
20
21.9440216
11
41.4712891
21
22.1549591
0
LINE
8
front_labelLayer
10
41.4712891
20
22.1549591
11
41.4712891
21
22.3694122
0
LINE
8
front_labelLayer
10
43.4294922
20
23.6666778
11
43.2783203
21
23.1990997
0
LINE
8
front_labelLayer
10
42.0548828
20
22.3834747
11
42.0548828
21
22.1338653
0
LINE
8
front_labelLayer
10
42.0548828
20
22.1338653
11
43.0357422
21
22.1338653
0
ARC
8
front_labelLayer
10
43.8363979
20
22.3966025
40
2.3652651
50
167.5776333
51
180.6586691
0
ARC
8
front_labelLayer
10
42.7241688
20
22.6559081
40
1.2233739
50
141.7433776
51
168.2321968
0
ARC
8
front_labelLayer
10
42.5430767
20
22.7504246
40
1.0233515
50
98.2551563
51
139.6203282
0
ARC
8
front_labelLayer
10
42.7020783
20
22.0158962
40
1.7738579
50
89.6696863
51
99.9314259
0
ARC
8
front_labelLayer
10
42.7025235
20
21.910451
40
1.8792991
50
81.5641037
51
89.7017911
0
ARC
8
front_labelLayer
10
42.5703982
20
20.9886864
40
2.8104775
50
75.974006
51
81.6564469
0
ARC
8
front_labelLayer
10
42.3437232
20
20.0484732
40
3.7776048
50
73.2962867
51
76.0946637
0
ARC
8
front_labelLayer
10
42.4007772
20
20.5044863
40
2.8339059
50
71.9613487
51
76.5918567
0
ARC
8
front_labelLayer
10
42.620634
20
21.4371411
40
1.8756925
50
76.5183747
51
83.0217245
0
ARC
8
front_labelLayer
10
42.6972166
20
22.0530018
40
1.2550903
50
83.0761646
51
89.7926924
0
ARC
8
front_labelLayer
10
42.6946962
20
22.5210735
40
0.7870422
50
89.4859156
51
103.4196957
0
ARC
8
front_labelLayer
10
42.6237388
20
22.7936867
40
0.5054371
50
102.7677221
51
144.3380431
0
ARC
8
front_labelLayer
10
42.7666931
20
22.7017095
40
0.6752611
50
145.0689431
51
162.1801316
0
ARC
8
front_labelLayer
10
43.2568284
20
22.5368051
40
1.1923669
50
161.8438152
51
171.7846219
0
ARC
8
front_labelLayer
10
44.0562255
20
22.416741
40
2.0007223
50
171.6528174
51
178.4383562
0
ARC
8
front_labelLayer
10
44.8099035
20
22.3845951
40
2.7550209
50
178.1972278
51
180.0233004
0
LINE
8
front_labelLayer
10
45.9572266
20
22.1619903
11
45.8763672
21
21.6205841
0
LINE
8
front_labelLayer
10
44.3224609
20
20.3479278
11
44.3224609
21
18.2807403
0
LINE
8
front_labelLayer
10
44.3224609
20
18.2807403
11
43.7388672
21
18.2807403
0
LINE
8
front_labelLayer
10
43.7388672
20
18.2807403
11
43.7388672
21
22.1338653
0
LINE
8
front_labelLayer
10
43.7388672
20
22.1338653
11
44.2205078
21
22.1338653
0
LINE
8
front_labelLayer
10
44.2205078
20
22.1338653
11
44.2873047
21
21.4201934
0
LINE
8
front_labelLayer
10
44.2873047
20
21.4201934
11
44.3154297
21
21.4201934
0
ARC
8
front_labelLayer
10
45.5026677
20
19.524931
40
2.6792535
50
84.9923694
51
90.1280534
0
ARC
8
front_labelLayer
10
45.5670149
20
20.2458947
40
1.9554252
50
78.4891569
51
85.0266452
0
ARC
8
front_labelLayer
10
45.3172767
20
19.1100275
40
2.5720568
50
77.445335
51
81.6359849
0
ARC
8
front_labelLayer
10
45.4293378
20
19.8824355
40
1.7915641
50
81.5884458
51
87.1916113
0
ARC
8
front_labelLayer
10
45.4536839
20
20.304722
40
1.3685967
50
87.3434322
51
89.9661612
0
ARC
8
front_labelLayer
10
45.4480244
20
20.6621442
40
1.0111949
50
89.6335219
51
137.08808
0
ARC
8
front_labelLayer
10
45.6961723
20
20.3830908
40
1.3833922
50
135.6208629
51
138.8377363
0
ARC
8
front_labelLayer
10
45.6598253
20
20.4185699
40
1.3326792
50
138.9575576
51
174.542238
0
ARC
8
front_labelLayer
10
46.0938494
20
20.3506589
40
1.7713904
50
173.6908091
51
180.088336
0
ARC
8
front_labelLayer
10
46.0324772
20
20.4528185
40
1.9708035
50
139.4139096
51
150.6033337
0
ARC
8
front_labelLayer
10
45.67912
20
20.7556083
40
1.5054616
50
124.2321445
51
139.4160732
0
ARC
8
front_labelLayer
10
45.4901757
20
21.0408181
40
1.1633778
50
89.6796785
51
124.4405395
0
ARC
8
front_labelLayer
10
46.9892794
20
20.1904961
40
3.0145
50
349.1761888
51
0.3862636
0
ARC
8
front_labelLayer
10
48.0041922
20
19.9881709
40
1.9796654
50
330.250691
51
349.4116556
0
ARC
8
front_labelLayer
10
48.3165179
20
19.8258374
40
1.6280125
50
318.1440342
51
329.7565931
0
ARC
8
front_labelLayer
10
48.3729012
20
19.780653
40
1.555872
50
278.8959068
51
317.9979147
0
ARC
8
front_labelLayer
10
48.2276501
20
20.4765656
40
2.2661593
50
269.7502859
51
279.8033112
0
ARC
8
front_labelLayer
10
48.2040931
20
20.0844586
40
1.8740807
50
253.5436747
51
270.4182492
0
ARC
8
front_labelLayer
10
48.1417057
20
19.8431357
40
1.6249925
50
238.8115248
51
253.2428692
0
ARC
8
front_labelLayer
10
48.1215744
20
19.802653
40
1.5799401
50
207.7946948
51
238.6758056
0
ARC
8
front_labelLayer
10
48.4104374
20
19.9795707
40
1.9180968
50
205.655948
51
208.4461251
0
ARC
8
front_labelLayer
10
48.6330058
20
20.0723122
40
2.158914
50
188.9102383
51
205.3171333
0
ARC
8
front_labelLayer
10
49.3829425
20
20.1993278
40
2.9194887
50
179.7744929
51
189.0932926
0
ARC
8
front_labelLayer
10
49.4935641
20
20.2313422
40
3.030157
50
169.2442997
51
180.3880773
0
ARC
8
front_labelLayer
10
48.4645458
20
20.4347412
40
1.9812734
50
150.7111378
51
169.4695322
0
ARC
8
front_labelLayer
10
48.1360554
20
20.6034328
40
1.6123068
50
138.1759619
51
150.228725
0
ARC
8
front_labelLayer
10
48.0814087
20
20.6453676
40
1.5436291
50
99.1759226
51
137.9832748
0
ARC
8
front_labelLayer
10
48.2318059
20
19.937591
40
2.2666116
50
89.7326343
51
100.0760154
0
ARC
8
front_labelLayer
10
48.261865
20
20.2432547
40
1.9610198
50
73.5222493
51
90.5692279
0
ARC
8
front_labelLayer
10
48.3768671
20
20.6610855
40
1.5277521
50
41.1445659
51
73.213378
0
ARC
8
front_labelLayer
10
48.1573363
20
20.472402
40
1.8172183
50
13.5014443
51
41.0703368
0
ARC
8
front_labelLayer
10
47.3091768
20
20.2504507
40
2.6938158
50
1.1277479
51
13.8799936
0
ARC
8
front_labelLayer
10
46.5789882
20
20.2113099
40
3.4247227
50
359.9917778
51
1.54202
0
ARC
8
front_labelLayer
10
50.0234149
20
20.1956507
40
2.9552897
50
179.7059343
51
187.9160987
0
ARC
8
front_labelLayer
10
48.9395146
20
20.0399473
40
1.8602808
50
187.7638921
51
200.0976763
0
ARC
8
front_labelLayer
10
48.3423944
20
19.8211619
40
1.2243408
50
200.0845855
51
216.9131438
0
ARC
8
front_labelLayer
10
48.124345
20
19.6654654
40
0.95651
50
217.3009782
51
261.7098983
0
ARC
8
front_labelLayer
10
48.2255705
20
20.1485115
40
1.4494253
50
260.5033677
51
270.2476743
0
ARC
8
front_labelLayer
10
48.2448907
20
20.0545802
40
1.3555434
50
269.4481947
51
284.7255444
0
ARC
8
front_labelLayer
10
48.3522012
20
19.6565979
40
0.9433595
50
284.5662313
51
322.6333548
0
ARC
8
front_labelLayer
10
48.1013046
20
19.8378584
40
1.2528003
50
323.0089482
51
342.6390642
0
ARC
8
front_labelLayer
10
47.3836782
20
20.0723982
40
2.0077425
50
342.3616079
51
353.7537392
0
ARC
8
front_labelLayer
10
46.3249464
20
20.2000118
40
3.0740959
50
353.5363452
51
0.2014174
0
ARC
8
front_labelLayer
10
46.4871805
20
20.2256806
40
2.9118808
50
359.7075632
51
7.8972829
0
ARC
8
front_labelLayer
10
47.553593
20
20.378561
40
1.8345835
50
7.7439996
51
20.06905
0
ARC
8
front_labelLayer
10
48.1478366
20
20.5966272
40
1.201593
50
20.0257036
51
37.4350391
0
ARC
8
front_labelLayer
10
48.3450039
20
20.7365337
40
0.9600298
50
37.9577745
51
80.4006157
0
ARC
8
front_labelLayer
10
48.2329605
20
20.2366041
40
1.4718931
50
79.3453653
51
90.3174806
0
ARC
8
front_labelLayer
10
48.2122141
20
20.3196422
40
1.3888896
50
89.4805963
51
103.8804613
0
ARC
8
front_labelLayer
10
48.095512
20
20.7640482
40
0.9294883
50
103.4685274
51
142.3118942
0
ARC
8
front_labelLayer
10
48.3223874
20
20.6044931
40
1.2066365
50
142.9025628
51
162.3750066
0
ARC
8
front_labelLayer
10
49.037294
20
20.3662522
40
1.9601491
50
162.0653376
51
173.1674557
0
ARC
8
front_labelLayer
10
50.151996
20
20.2240797
40
3.0838604
50
173.0086217
51
180.2463849
0
LINE
8
front_labelLayer
10
54.2470703
20
18.2807403
11
53.6634766
21
18.2807403
0
LINE
8
front_labelLayer
10
53.6634766
20
18.2807403
11
53.6634766
21
20.7733184
0
LINE
8
front_labelLayer
10
51.6103516
20
20.3022247
11
51.6103516
21
18.2807403
0
LINE
8
front_labelLayer
10
51.6103516
20
18.2807403
11
51.0267578
21
18.2807403
0
LINE
8
front_labelLayer
10
51.0267578
20
18.2807403
11
51.0267578
21
22.1338653
0
LINE
8
front_labelLayer
10
51.0267578
20
22.1338653
11
51.5013672
21
22.1338653
0
LINE
8
front_labelLayer
10
51.5013672
20
22.1338653
11
51.5962891
21
21.6065216
0
LINE
8
front_labelLayer
10
51.5962891
20
21.6065216
11
51.6244141
21
21.6065216
0
LINE
8
front_labelLayer
10
54.2470703
20
20.7944122
11
54.2470703
21
18.2807403
0
ARC
8
front_labelLayer
10
52.0138358
20
20.7827793
40
1.6496679
50
359.6714069
51
8.6877457
0
ARC
8
front_labelLayer
10
52.6252451
20
20.8797451
40
1.0306331
50
8.4931545
51
22.6579838
0
ARC
8
front_labelLayer
10
52.9358914
20
21.008841
40
0.6942309
50
22.7023626
51
42.3420094
0
ARC
8
front_labelLayer
10
52.9708048
20
21.024545
40
0.6579554
50
43.3790917
51
71.5385722
0
ARC
8
front_labelLayer
10
52.8402302
20
20.6596813
40
1.0454236
50
71.0828628
51
84.3690894
0
ARC
8
front_labelLayer
10
52.7816164
20
20.161294
40
1.547186
50
84.0198998
51
90.1509945
0
ARC
8
front_labelLayer
10
52.7650021
20
19.9422533
40
1.7662659
50
89.5933098
51
100.3718126
0
ARC
8
front_labelLayer
10
52.6401808
20
20.597145
40
1.0996137
50
100.1176351
51
118.1602749
0
ARC
8
front_labelLayer
10
52.5143952
20
20.8438013
40
0.8228091
50
118.5439952
51
139.1926649
0
ARC
8
front_labelLayer
10
52.6240716
20
20.7702076
40
0.9540529
50
140.1518805
51
160.3146521
0
ARC
8
front_labelLayer
10
53.286394
20
20.5221301
40
1.661266
50
159.9534526
51
171.3801304
0
ARC
8
front_labelLayer
10
54.3683214
20
20.3482134
40
2.7570563
50
171.1765771
51
178.3217234
0
ARC
8
front_labelLayer
10
55.3489045
20
20.3037741
40
3.7385532
50
178.0810851
51
180.0237461
0
ARC
8
front_labelLayer
10
52.6227402
20
20.9742484
40
1.181704
50
116.9442878
51
147.6525567
0
ARC
8
front_labelLayer
10
52.7459143
20
20.7681839
40
1.4213079
50
115.8075452
51
117.6066501
0
ARC
8
front_labelLayer
10
52.808623
20
20.6219009
40
1.5803174
50
94.3226974
51
115.5454138
0
ARC
8
front_labelLayer
10
52.8464493
20
20.2932483
40
1.9109301
50
89.9579553
51
94.7108902
0
ARC
8
front_labelLayer
10
52.8620794
20
19.9000917
40
2.3041301
50
80.5585206
51
90.3538008
0
ARC
8
front_labelLayer
10
53.0060741
20
20.7341598
40
1.4577491
50
65.1094235
51
80.7638213
0
ARC
8
front_labelLayer
10
53.1743942
20
21.1069861
40
1.0487183
50
46.558454
51
64.8782011
0
ARC
8
front_labelLayer
10
53.1878661
20
21.1458238
40
1.0113974
50
19.3848849
51
45.5996789
0
ARC
8
front_labelLayer
10
52.6027499
20
20.9262774
40
1.6362645
50
6.9633213
51
19.8363549
0
ARC
8
front_labelLayer
10
51.7003271
20
20.8049417
40
2.546765
50
359.7631128
51
7.2116167
0
LINE
8
front_labelLayer
10
57.2177734
20
18.7623809
11
57.2177734
21
18.3158966
0
LINE
8
front_labelLayer
10
55.4880859
20
19.3881622
11
55.4880859
21
21.6803497
0
LINE
8
front_labelLayer
10
55.4880859
20
21.6803497
11
54.9361328
21
21.6803497
0
LINE
8
front_labelLayer
10
54.9361328
20
21.6803497
11
54.9361328
21
21.9615997
0
LINE
8
front_labelLayer
10
54.9361328
20
21.9615997
11
55.4880859
21
22.2041778
0
LINE
8
front_labelLayer
10
55.4880859
20
22.2041778
11
55.7341797
21
23.0268341
0
LINE
8
front_labelLayer
10
55.7341797
20
23.0268341
11
56.0716797
21
23.0268341
0
LINE
8
front_labelLayer
10
56.0716797
20
23.0268341
11
56.0716797
21
22.1338653
0
LINE
8
front_labelLayer
10
56.0716797
20
22.1338653
11
57.1896484
21
22.1338653
0
LINE
8
front_labelLayer
10
57.1896484
20
22.1338653
11
57.1896484
21
21.6803497
0
LINE
8
front_labelLayer
10
57.1896484
20
21.6803497
11
56.0716797
21
21.6803497
0
LINE
8
front_labelLayer
10
56.0716797
20
21.6803497
11
56.0716797
21
19.4127716
0
ARC
8
front_labelLayer
10
56.6944333
20
20.6086647
40
1.9166004
50
269.8803132
51
278.3027971
0
ARC
8
front_labelLayer
10
56.713606
20
20.4534999
40
1.7602965
50
278.4145937
51
279.009251
0
ARC
8
front_labelLayer
10
56.4975929
20
21.83362
40
3.1572178
50
278.9589785
51
280.5103195
0
ARC
8
front_labelLayer
10
56.7025387
20
20.7339014
40
2.0385656
50
280.4848914
51
282.6267735
0
ARC
8
front_labelLayer
10
56.8823284
20
19.9351409
40
1.2198218
50
282.5876473
51
285.5796174
0
ARC
8
front_labelLayer
10
56.9724602
20
19.6036694
40
0.8763246
50
285.7238148
51
286.2562754
0
ARC
8
front_labelLayer
10
56.9724092
20
18.834857
40
0.5740414
50
287.9889567
51
295.3047586
0
ARC
8
front_labelLayer
10
56.8339596
20
19.2537383
40
1.0152066
50
283.3069675
51
288.1197214
0
ARC
8
front_labelLayer
10
56.687703
20
19.8638101
40
1.6425632
50
280.0071046
51
283.3736158
0
ARC
8
front_labelLayer
10
56.590011
20
20.3939161
40
2.181584
50
279.1860596
51
280.1144988
0
ARC
8
front_labelLayer
10
56.5297741
20
20.7365826
40
2.5294766
50
275.5260304
51
279.2938957
0
ARC
8
front_labelLayer
10
56.5974624
20
20.0296035
40
1.8192651
50
270.8933822
51
275.5482951
0
ARC
8
front_labelLayer
10
56.6059572
20
19.708382
40
1.4979542
50
270.0037298
51
270.7600711
0
ARC
8
front_labelLayer
10
56.5825043
20
19.7345029
40
1.524257
50
253.78477
51
270.8852789
0
ARC
8
front_labelLayer
10
56.4019203
20
19.1186456
40
0.8824726
50
190.3817627
51
253.8772501
0
ARC
8
front_labelLayer
10
57.3223587
20
19.3675152
40
1.8343889
50
179.355094
51
192.8477427
0
ARC
8
front_labelLayer
10
57.2468114
20
19.4054207
40
1.1751548
50
179.6416003
51
189.7506163
0
ARC
8
front_labelLayer
10
56.8319638
20
19.3314264
40
0.7537729
50
189.5479093
51
205.7873549
0
ARC
8
front_labelLayer
10
56.6614777
20
19.2528105
40
0.5660742
50
206.1294715
51
221.4084052
0
ARC
8
front_labelLayer
10
56.6423608
20
19.2383047
40
0.5421447
50
221.5949219
51
262.3505224
0
ARC
8
front_labelLayer
10
56.6878251
20
19.4721079
40
0.7800438
50
261.3267161
51
270.1913099
0
LINE
8
left_outsideCutPath
10
104
20
39
11
104
21
26.0625
0
LINE
8
left_outsideCutPath
10
104
20
26.0625
11
101
21
26.0625
0
LINE
8
left_outsideCutPath
10
101
20
26.0625
11
101
21
15.9375
0
LINE
8
left_outsideCutPath
10
101
20
15.9375
11
104
21
15.9375
0
LINE
8
left_outsideCutPath
10
104
20
15.9375
11
104
21
5.8125
0
LINE
8
left_outsideCutPath
10
104
20
5.8125
11
104
21
3
0
LINE
8
left_outsideCutPath
10
104
20
3
11
114.8125
21
3
0
LINE
8
left_outsideCutPath
10
114.8125
20
3
11
114.8125
21
6
0
LINE
8
left_outsideCutPath
10
114.8125
20
6
11
124.9375
21
6
0
LINE
8
left_outsideCutPath
10
124.9375
20
6
11
124.9375
21
3
0
LINE
8
left_outsideCutPath
10
124.9375
20
3
11
135.0625
21
3
0
LINE
8
left_outsideCutPath
10
135.0625
20
3
11
135.0625
21
6
0
LINE
8
left_outsideCutPath
10
135.0625
20
6
11
145.1875
21
6
0
LINE
8
left_outsideCutPath
10
145.1875
20
6
11
145.1875
21
3
0
LINE
8
left_outsideCutPath
10
145.1875
20
3
11
155.3125
21
3
0
LINE
8
left_outsideCutPath
10
155.3125
20
3
11
156
21
3
0
LINE
8
left_outsideCutPath
10
156
20
3
11
156
21
15.9375
0
LINE
8
left_outsideCutPath
10
156
20
15.9375
11
159
21
15.9375
0
LINE
8
left_outsideCutPath
10
159
20
15.9375
11
159
21
26.0625
0
LINE
8
left_outsideCutPath
10
159
20
26.0625
11
156
21
26.0625
0
LINE
8
left_outsideCutPath
10
156
20
26.0625
11
156
21
36.1875
0
LINE
8
left_outsideCutPath
10
156
20
36.1875
11
156
21
39
0
LINE
8
left_outsideCutPath
10
156
20
39
11
104
21
39
0
LINE
8
left_labelLayer
10
125.5474609
20
23.7510528
11
125.5474609
21
18.2807403
0
LINE
8
left_labelLayer
10
125.5474609
20
18.2807403
11
124.9638672
21
18.2807403
0
LINE
8
left_labelLayer
10
124.9638672
20
18.2807403
11
124.9638672
21
23.7510528
0
LINE
8
left_labelLayer
10
124.9638672
20
23.7510528
11
125.5474609
21
23.7510528
0
LINE
8
left_labelLayer
10
129.8294922
20
20.4709747
11
129.8294922
21
20.1018341
0
LINE
8
left_labelLayer
10
129.8294922
20
20.1018341
11
127.1751953
21
20.1018341
0
LINE
8
left_labelLayer
10
129.6642578
20
18.9803497
11
129.6642578
21
18.4600372
0
LINE
8
left_labelLayer
10
127.1892578
20
20.5764434
11
129.2037109
21
20.5764434
0
ARC
8
left_labelLayer
10
128.3935054
20
20.4781556
40
2.267809
50
256.0087554
51
270.4848359
0
ARC
8
left_labelLayer
10
128.2283644
20
19.8370508
40
1.6058059
50
223.5465853
51
256.1957025
0
ARC
8
left_labelLayer
10
128.3194637
20
19.903263
40
1.717516
50
194.0877085
51
223.05383
0
ARC
8
left_labelLayer
10
129.1541906
20
20.1315316
40
2.5827643
50
181.3574285
51
194.4920127
0
ARC
8
left_labelLayer
10
129.904107
20
20.1750055
40
3.3335992
50
179.9887127
51
181.7990894
0
ARC
8
left_labelLayer
10
129.6348842
20
20.1962176
40
3.0644453
50
168.9539368
51
180.3843263
0
ARC
8
left_labelLayer
10
128.6340472
20
20.4000045
40
2.0431219
50
149.4071139
51
169.1853763
0
ARC
8
left_labelLayer
10
128.3551725
20
20.5473537
40
1.7281398
50
140.1055312
51
148.9068046
0
ARC
8
left_labelLayer
10
128.1838822
20
20.7052801
40
1.4954738
50
92.4762707
51
140.5386249
0
ARC
8
left_labelLayer
10
128.2602177
20
20.1411992
40
2.0629789
50
89.9637345
51
93.9176545
0
ARC
8
left_labelLayer
10
128.2784364
20
20.4262737
40
1.7779846
50
74.2125947
51
90.5450318
0
ARC
8
left_labelLayer
10
128.3897965
20
20.8365728
40
1.3528725
50
41.2064722
51
74.0232722
0
ARC
8
left_labelLayer
10
128.1789016
20
20.6540587
40
1.6317736
50
11.5994119
51
41.1496114
0
ARC
8
left_labelLayer
10
127.4542637
20
20.4869434
40
2.3752823
50
359.614805
51
12.03363
0
ARC
8
left_labelLayer
10
129.5170552
20
20.1486286
40
2.3423274
50
181.1447207
51
190.8007327
0
ARC
8
left_labelLayer
10
128.6907098
20
19.9856484
40
1.5000886
50
190.6005544
51
206.0275053
0
ARC
8
left_labelLayer
10
128.3251059
20
19.8128084
40
1.0957321
50
206.2950591
51
222.5558028
0
ARC
8
left_labelLayer
10
128.2927093
20
19.7958459
40
1.0604382
50
223.0645187
51
258.1401207
0
ARC
8
left_labelLayer
10
128.4216757
20
20.3268738
40
1.6067261
50
257.5311404
51
270.4319655
0
ARC
8
left_labelLayer
10
128.4231165
20
21.8024527
40
3.0822778
50
270.1983908
51
292.20905
0
ARC
8
left_labelLayer
10
128.2752102
20
22.2272592
40
3.531554
50
291.825544
51
293.1615334
0
ARC
8
left_labelLayer
10
128.2680113
20
21.6733063
40
3.5035129
50
287.9022961
51
293.4861621
0
ARC
8
left_labelLayer
10
128.5221621
20
20.889157
40
2.679206
50
281.9935709
51
287.8851466
0
ARC
8
left_labelLayer
10
128.5837421
20
20.6678651
40
2.4499896
50
275.9055378
51
281.6602956
0
ARC
8
left_labelLayer
10
128.4604529
20
21.8186718
40
3.6073764
50
271.9119353
51
275.9727214
0
ARC
8
left_labelLayer
10
128.415435
20
22.9654035
40
4.7549765
50
269.9669882
51
271.993078
0
ARC
8
left_labelLayer
10
128.2432926
20
20.5651664
40
1.1503941
50
89.442193
51
106.2089962
0
ARC
8
left_labelLayer
10
128.1740836
20
20.8175097
40
0.8887712
50
106.4656802
51
137.9176704
0
ARC
8
left_labelLayer
10
128.3725109
20
20.6432572
40
1.1528299
50
138.0994898
51
160.5866108
0
ARC
8
left_labelLayer
10
128.8825603
20
20.4556191
40
1.6962642
50
160.3353413
51
172.5315228
0
ARC
8
left_labelLayer
10
129.3845688
20
20.3751759
40
2.2045178
50
172.1544208
51
174.7617309
0
ARC
8
left_labelLayer
10
127.2150483
20
20.5877394
40
1.9886947
50
359.6745525
51
8.9224194
0
ARC
8
left_labelLayer
10
127.9256568
20
20.7035204
40
1.2687347
50
8.7342507
51
23.2771358
0
ARC
8
left_labelLayer
10
128.2630143
20
20.8451327
40
0.9028802
50
23.4821686
51
39.7072324
0
ARC
8
left_labelLayer
10
128.3458792
20
20.9071431
40
0.7995316
50
40.0822901
51
80.6243341
0
ARC
8
left_labelLayer
10
128.2605827
20
20.5161405
40
1.1993809
50
79.6468895
51
90.2909545
0
LINE
8
left_labelLayer
10
132.5611328
20
22.1338653
11
132.5611328
21
21.6803497
0
LINE
8
left_labelLayer
10
132.5611328
20
21.6803497
11
131.5802734
21
21.6803497
0
LINE
8
left_labelLayer
10
131.5802734
20
21.6803497
11
131.5802734
21
18.2807403
0
LINE
8
left_labelLayer
10
131.5802734
20
18.2807403
11
130.9966797
21
18.2807403
0
LINE
8
left_labelLayer
10
130.9966797
20
18.2807403
11
130.9966797
21
21.6803497
0
LINE
8
left_labelLayer
10
130.9966797
20
21.6803497
11
130.3076172
21
21.6803497
0
LINE
8
left_labelLayer
10
130.3076172
20
21.6803497
11
130.3076172
21
21.9440216
0
LINE
8
left_labelLayer
10
130.3076172
20
21.9440216
11
130.9966797
21
22.1549591
0
LINE
8
left_labelLayer
10
130.9966797
20
22.1549591
11
130.9966797
21
22.3694122
0
LINE
8
left_labelLayer
10
132.9548828
20
23.6666778
11
132.8037109
21
23.1990997
0
LINE
8
left_labelLayer
10
131.5802734
20
22.3834747
11
131.5802734
21
22.1338653
0
LINE
8
left_labelLayer
10
131.5802734
20
22.1338653
11
132.5611328
21
22.1338653
0
ARC
8
left_labelLayer
10
133.3617885
20
22.3966025
40
2.3652651
50
167.5776333
51
180.6586691
0
ARC
8
left_labelLayer
10
132.2495595
20
22.6559081
40
1.2233739
50
141.7433776
51
168.2321968
0
ARC
8
left_labelLayer
10
132.0684673
20
22.7504246
40
1.0233515
50
98.2551563
51
139.6203282
0
ARC
8
left_labelLayer
10
132.227469
20
22.0158962
40
1.7738579
50
89.6696863
51
99.9314259
0
ARC
8
left_labelLayer
10
132.2279141
20
21.910451
40
1.8792991
50
81.5641037
51
89.7017911
0
ARC
8
left_labelLayer
10
132.0957888
20
20.9886864
40
2.8104775
50
75.974006
51
81.6564469
0
ARC
8
left_labelLayer
10
131.8691138
20
20.0484732
40
3.7776048
50
73.2962867
51
76.0946637
0
ARC
8
left_labelLayer
10
131.9261679
20
20.5044863
40
2.8339059
50
71.9613487
51
76.5918567
0
ARC
8
left_labelLayer
10
132.1460247
20
21.4371411
40
1.8756925
50
76.5183747
51
83.0217245
0
ARC
8
left_labelLayer
10
132.2226073
20
22.0530018
40
1.2550903
50
83.0761646
51
89.7926924
0
ARC
8
left_labelLayer
10
132.2200868
20
22.5210735
40
0.7870422
50
89.4859156
51
103.4196957
0
ARC
8
left_labelLayer
10
132.1491294
20
22.7936867
40
0.5054371
50
102.7677221
51
144.3380431
0
ARC
8
left_labelLayer
10
132.2920837
20
22.7017095
40
0.6752611
50
145.0689431
51
162.1801316
0
ARC
8
left_labelLayer
10
132.782219
20
22.5368051
40
1.1923669
50
161.8438152
51
171.7846219
0
ARC
8
left_labelLayer
10
133.5816161
20
22.416741
40
2.0007223
50
171.6528174
51
178.4383562
0
ARC
8
left_labelLayer
10
134.3352942
20
22.3845951
40
2.7550209
50
178.1972278
51
180.0233004
0
LINE
8
left_labelLayer
10
135.0361328
20
18.7623809
11
135.0361328
21
18.3158966
0
LINE
8
left_labelLayer
10
133.3064453
20
19.3881622
11
133.3064453
21
21.6803497
0
LINE
8
left_labelLayer
10
133.3064453
20
21.6803497
11
132.7544922
21
21.6803497
0
LINE
8
left_labelLayer
10
132.7544922
20
21.6803497
11
132.7544922
21
21.9615997
0
LINE
8
left_labelLayer
10
132.7544922
20
21.9615997
11
133.3064453
21
22.2041778
0
LINE
8
left_labelLayer
10
133.3064453
20
22.2041778
11
133.5525391
21
23.0268341
0
LINE
8
left_labelLayer
10
133.5525391
20
23.0268341
11
133.8900391
21
23.0268341
0
LINE
8
left_labelLayer
10
133.8900391
20
23.0268341
11
133.8900391
21
22.1338653
0
LINE
8
left_labelLayer
10
133.8900391
20
22.1338653
11
135.0080078
21
22.1338653
0
LINE
8
left_labelLayer
10
135.0080078
20
22.1338653
11
135.0080078
21
21.6803497
0
LINE
8
left_labelLayer
10
135.0080078
20
21.6803497
11
133.8900391
21
21.6803497
0
LINE
8
left_labelLayer
10
133.8900391
20
21.6803497
11
133.8900391
21
19.4127716
0
ARC
8
left_labelLayer
10
134.5127927
20
20.6086647
40
1.9166004
50
269.8803132
51
278.3027971
0
ARC
8
left_labelLayer
10
134.5319654
20
20.4534999
40
1.7602965
50
278.4145937
51
279.009251
0
ARC
8
left_labelLayer
10
134.3159522
20
21.83362
40
3.1572178
50
278.9589785
51
280.5103195
0
ARC
8
left_labelLayer
10
134.5208981
20
20.7339014
40
2.0385656
50
280.4848914
51
282.6267735
0
ARC
8
left_labelLayer
10
134.7006878
20
19.9351409
40
1.2198218
50
282.5876473
51
285.5796174
0
ARC
8
left_labelLayer
10
134.7908196
20
19.6036694
40
0.8763246
50
285.7238148
51
286.2562754
0
ARC
8
left_labelLayer
10
134.7907686
20
18.834857
40
0.5740414
50
287.9889567
51
295.3047586
0
ARC
8
left_labelLayer
10
134.652319
20
19.2537383
40
1.0152066
50
283.3069675
51
288.1197214
0
ARC
8
left_labelLayer
10
134.5060624
20
19.8638101
40
1.6425632
50
280.0071046
51
283.3736158
0
ARC
8
left_labelLayer
10
134.4083703
20
20.3939161
40
2.181584
50
279.1860596
51
280.1144988
0
ARC
8
left_labelLayer
10
134.3481335
20
20.7365826
40
2.5294766
50
275.5260304
51
279.2938957
0
ARC
8
left_labelLayer
10
134.4158218
20
20.0296035
40
1.8192651
50
270.8933822
51
275.5482951
0
ARC
8
left_labelLayer
10
134.4243165
20
19.708382
40
1.4979542
50
270.0037298
51
270.7600711
0
ARC
8
left_labelLayer
10
134.4008636
20
19.7345029
40
1.524257
50
253.78477
51
270.8852789
0
ARC
8
left_labelLayer
10
134.2202796
20
19.1186456
40
0.8824726
50
190.3817627
51
253.8772501
0
ARC
8
left_labelLayer
10
135.1407181
20
19.3675152
40
1.8343889
50
179.355094
51
192.8477427
0
ARC
8
left_labelLayer
10
135.0651708
20
19.4054207
40
1.1751548
50
179.6416003
51
189.7506163
0
ARC
8
left_labelLayer
10
134.6503232
20
19.3314264
40
0.7537729
50
189.5479093
51
205.7873549
0
ARC
8
left_labelLayer
10
134.4798371
20
19.2528105
40
0.5660742
50
206.1294715
51
221.4084052
0
ARC
8
left_labelLayer
10
134.4607201
20
19.2383047
40
0.5421447
50
221.5949219
51
262.3505224
0
ARC
8
left_labelLayer
10
134.5061845
20
19.4721079
40
0.7800438
50
261.3267161
51
270.1913099
0
LINE
8
back_outsideCutPath
10
0
20
78
11
0
21
65.0625
0
LINE
8
back_outsideCutPath
10
0
20
65.0625
11
3
21
65.0625
0
LINE
8
back_outsideCutPath
10
3
20
65.0625
11
3
21
54.9375
0
LINE
8
back_outsideCutPath
10
3
20
54.9375
11
0
21
54.9375
0
LINE
8
back_outsideCutPath
10
0
20
54.9375
11
0
21
44.8125
0
LINE
8
back_outsideCutPath
10
0
20
44.8125
11
0
21
42
0
LINE
8
back_outsideCutPath
10
0
20
42
11
13.5625
21
42
0
LINE
8
back_outsideCutPath
10
13.5625
20
42
11
13.5625
21
45
0
LINE
8
back_outsideCutPath
10
13.5625
20
45
11
23.6875
21
45
0
LINE
8
back_outsideCutPath
10
23.6875
20
45
11
23.6875
21
42
0
LINE
8
back_outsideCutPath
10
23.6875
20
42
11
33.8125
21
42
0
LINE
8
back_outsideCutPath
10
33.8125
20
42
11
33.8125
21
45
0
LINE
8
back_outsideCutPath
10
33.8125
20
45
11
43.9375
21
45
0
LINE
8
back_outsideCutPath
10
43.9375
20
45
11
43.9375
21
42
0
LINE
8
back_outsideCutPath
10
43.9375
20
42
11
54.0625
21
42
0
LINE
8
back_outsideCutPath
10
54.0625
20
42
11
54.0625
21
45
0
LINE
8
back_outsideCutPath
10
54.0625
20
45
11
64.1875
21
45
0
LINE
8
back_outsideCutPath
10
64.1875
20
45
11
64.1875
21
42
0
LINE
8
back_outsideCutPath
10
64.1875
20
42
11
74.3125
21
42
0
LINE
8
back_outsideCutPath
10
74.3125
20
42
11
74.3125
21
45
0
LINE
8
back_outsideCutPath
10
74.3125
20
45
11
84.4375
21
45
0
LINE
8
back_outsideCutPath
10
84.4375
20
45
11
84.4375
21
42
0
LINE
8
back_outsideCutPath
10
84.4375
20
42
11
94.5625
21
42
0
LINE
8
back_outsideCutPath
10
94.5625
20
42
11
98
21
42
0
LINE
8
back_outsideCutPath
10
98
20
42
11
98
21
54.9375
0
LINE
8
back_outsideCutPath
10
98
20
54.9375
11
95
21
54.9375
0
LINE
8
back_outsideCutPath
10
95
20
54.9375
11
95
21
65.0625
0
LINE
8
back_outsideCutPath
10
95
20
65.0625
11
98
21
65.0625
0
LINE
8
back_outsideCutPath
10
98
20
65.0625
11
98
21
75.1875
0
LINE
8
back_outsideCutPath
10
98
20
75.1875
11
98
21
78
0
LINE
8
back_outsideCutPath
10
98
20
78
11
0
21
78
0
LINE
8
back_labelLayer
10
42.1199219
20
57.7957428
11
42.0777344
21
57.7957428
0
LINE
8
back_labelLayer
10
42.0777344
20
57.7957428
11
41.9546875
21
57.3000397
0
LINE
8
back_labelLayer
10
41.9546875
20
57.3000397
11
41.5363281
21
57.3000397
0
LINE
8
back_labelLayer
10
41.5363281
20
57.3000397
11
41.5363281
21
62.7703522
0
LINE
8
back_labelLayer
10
41.5363281
20
62.7703522
11
42.1199219
21
62.7703522
0
LINE
8
back_labelLayer
10
42.1199219
20
62.7703522
11
42.1199219
21
61.441446
0
LINE
8
back_labelLayer
10
42.0917969
20
60.6398835
11
42.1199219
21
60.6398835
0
ARC
8
back_labelLayer
10
43.3468045
20
59.4328673
40
1.7836645
50
74.2393465
51
90.5623985
0
ARC
8
back_labelLayer
10
43.4647463
20
59.8655429
40
1.3352262
50
38.5631111
51
74.0670444
0
ARC
8
back_labelLayer
10
43.1612273
20
59.6295389
40
1.7196801
50
16.4709362
51
38.4075228
0
ARC
8
back_labelLayer
10
42.2868329
20
59.3553552
40
2.6359743
50
5.1338625
51
16.7973288
0
ARC
8
back_labelLayer
10
41.182984
20
59.2380987
40
3.7459307
50
359.877929
51
5.4093417
0
ARC
8
back_labelLayer
10
41.5072082
20
59.2099315
40
3.4217575
50
350.6562939
51
0.3380123
0
ARC
8
back_labelLayer
10
42.7000981
20
59.0070344
40
2.2117628
50
335.8305956
51
350.8254974
0
ARC
8
back_labelLayer
10
43.2248214
20
58.7805564
40
1.6403296
50
321.3161447
51
335.5436164
0
ARC
8
back_labelLayer
10
43.425427
20
58.6170929
40
1.3815689
50
274.0640105
51
321.4081143
0
ARC
8
back_labelLayer
10
43.3319697
20
59.2090932
40
1.9793679
50
269.9226312
51
275.5481678
0
ARC
8
back_labelLayer
10
43.3194546
20
58.9998596
40
1.7701597
50
255.7755117
51
270.3185726
0
ARC
8
back_labelLayer
10
43.2689362
20
58.7754206
40
1.5402009
50
245.9801336
51
255.5456148
0
ARC
8
back_labelLayer
10
43.1710967
20
58.5478947
40
1.2925559
50
215.5850276
51
245.8361478
0
ARC
8
back_labelLayer
10
29.9526793
20
61.431154
40
12.1672469
50
358.1123119
51
0.0484649
0
ARC
8
back_labelLayer
10
33.3387356
20
61.317475
40
8.7792838
50
355.7238801
51
358.1258817
0
ARC
8
back_labelLayer
10
34.8321445
20
61.2148205
40
7.2823833
50
355.4718416
51
355.6531921
0
ARC
8
back_labelLayer
10
43.2082988
20
59.8809289
40
1.3268671
50
95.1835121
51
145.1108961
0
ARC
8
back_labelLayer
10
43.3249238
20
59.2232834
40
1.9931673
50
89.8742918
51
96.8145699
0
ARC
8
back_labelLayer
10
43.2327031
20
59.0878728
40
1.6399468
50
89.5731007
51
100.7323968
0
ARC
8
back_labelLayer
10
43.1113009
20
59.701239
40
1.0147145
50
100.4468969
51
119.670084
0
ARC
8
back_labelLayer
10
42.9987255
20
59.9117112
40
0.7761379
50
120.140275
51
142.424904
0
ARC
8
back_labelLayer
10
43.1849751
20
59.7885009
40
0.9990115
50
143.3382381
51
161.2559721
0
ARC
8
back_labelLayer
10
43.963828
20
59.511982
40
1.8254503
50
160.8926246
51
171.2334161
0
ARC
8
back_labelLayer
10
45.2640222
20
59.30223
40
3.1424364
50
171.0667742
51
177.8457069
0
ARC
8
back_labelLayer
10
46.615933
20
59.2334603
40
4.4960124
50
177.61757
51
180.0425957
0
ARC
8
back_labelLayer
10
45.9785507
20
59.2150505
40
3.8586582
50
179.7762699
51
185.7075524
0
ARC
8
back_labelLayer
10
44.4572407
20
59.0582996
40
2.329306
50
185.5924798
51
194.2050216
0
ARC
8
back_labelLayer
10
43.4826802
20
58.8053702
40
1.3224905
50
193.9430804
51
208.0218238
0
ARC
8
back_labelLayer
10
43.0883763
20
58.6047777
40
0.8802094
50
208.553664
51
217.5604493
0
ARC
8
back_labelLayer
10
43.0562428
20
58.5914113
40
0.8466364
50
218.1690448
51
253.8047118
0
ARC
8
back_labelLayer
10
43.2132785
20
59.0755699
40
1.3554728
50
253.138256
51
266.8482746
0
ARC
8
back_labelLayer
10
43.2573095
20
59.5948429
40
1.8764444
50
266.3775969
51
270.0511415
0
ARC
8
back_labelLayer
10
43.271434
20
58.881718
40
1.1633855
50
269.3868553
51
285.8630722
0
ARC
8
back_labelLayer
10
43.3578661
20
58.5693421
40
0.8392832
50
286.0162688
51
326.8497328
0
ARC
8
back_labelLayer
10
42.9406968
20
58.8457014
40
1.339681
50
326.7105029
51
343.6661609
0
ARC
8
back_labelLayer
10
42.1597858
20
59.0843231
40
2.1562027
50
343.4171132
51
353.6368961
0
ARC
8
back_labelLayer
10
40.9802758
20
59.2242774
40
3.3439676
50
353.4935136
51
0.2205453
0
ARC
8
back_labelLayer
10
40.876313
20
59.2511053
40
3.447934
50
359.768083
51
6.3095049
0
ARC
8
back_labelLayer
10
42.1750788
20
59.4001452
40
2.1406626
50
6.1648684
51
16.0396097
0
ARC
8
back_labelLayer
10
43.0117268
20
59.6467031
40
1.2684732
50
15.7779791
51
32.0151392
0
ARC
8
back_labelLayer
10
43.2725226
20
59.7960436
40
0.9682405
50
32.7034928
51
35.5239747
0
ARC
8
back_labelLayer
10
43.3680426
20
59.8639299
40
0.8510545
50
35.5408406
51
79.8011217
0
ARC
8
back_labelLayer
10
43.2537557
20
59.3780704
40
1.3497325
50
78.6781622
51
90.3749958
0
LINE
8
back_labelLayer
10
48.7503906
20
57.3000397
11
48.3179688
21
57.3000397
0
LINE
8
back_labelLayer
10
48.3179688
20
57.3000397
11
48.2019531
21
57.8484772
0
LINE
8
back_labelLayer
10
48.2019531
20
57.8484772
11
48.1738281
21
57.8484772
0
LINE
8
back_labelLayer
10
47.5269531
20
59.5887116
11
48.1808594
21
59.6098053
0
LINE
8
back_labelLayer
10
48.1808594
20
59.6098053
11
48.1808594
21
59.8488678
0
LINE
8
back_labelLayer
10
46.271875
20
60.4394928
11
46.0925781
21
60.8859772
0
LINE
8
back_labelLayer
10
48.7503906
20
59.9297272
11
48.7503906
21
57.3000397
0
LINE
8
back_labelLayer
10
48.1667969
20
58.8469147
11
48.1667969
21
59.1949616
0
LINE
8
back_labelLayer
10
48.1667969
20
59.1949616
11
47.5832031
21
59.1703522
0
ARC
8
back_labelLayer
10
46.2750585
20
59.3476462
40
2.419263
50
314.7444879
51
321.7072277
0
ARC
8
back_labelLayer
10
46.8694278
20
58.7437187
40
1.5719204
50
304.8485422
51
314.8531061
0
ARC
8
back_labelLayer
10
47.1549488
20
58.3373101
40
1.0752475
50
294.3932768
51
304.7370878
0
ARC
8
back_labelLayer
10
47.0574025
20
58.5900612
40
1.3458124
50
281.2979674
51
293.7313688
0
ARC
8
back_labelLayer
10
46.9284485
20
59.2150409
40
1.9839485
50
272.9335252
51
281.4139063
0
ARC
8
back_labelLayer
10
46.8857098
20
59.8559052
40
2.6261788
50
269.9538341
51
273.1491878
0
ARC
8
back_labelLayer
10
46.8709413
20
59.0206422
40
1.7909597
50
258.6719322
51
270.4047751
0
ARC
8
back_labelLayer
10
46.746539
20
58.4255576
40
1.1830433
50
238.3272985
51
258.9183688
0
ARC
8
back_labelLayer
10
46.6608129
20
58.2691596
40
1.0049689
50
227.7689703
51
237.8049888
0
ARC
8
back_labelLayer
10
46.6339951
20
58.231722
40
0.9592384
50
192.0827627
51
227.4520647
0
ARC
8
back_labelLayer
10
47.1285318
20
58.3536316
40
1.4684218
50
179.5457232
51
192.6949867
0
ARC
8
back_labelLayer
10
46.6691113
20
58.4068
40
1.0098092
50
115.4904562
51
182.356812
0
ARC
8
back_labelLayer
10
47.1748337
20
57.4792014
40
2.0655505
50
101.3567973
51
117.0798636
0
ARC
8
back_labelLayer
10
47.5809762
20
55.5812708
40
4.0063711
50
92.4696129
51
101.7065096
0
ARC
8
back_labelLayer
10
47.6976814
20
53.8912074
40
5.7000615
50
91.7163802
51
92.9096113
0
ARC
8
back_labelLayer
10
46.5046787
20
59.8578408
40
1.6762047
50
359.6932852
51
8.0036116
0
ARC
8
back_labelLayer
10
47.1387378
20
59.9502107
40
1.0354654
50
7.8272885
51
20.6041206
0
ARC
8
back_labelLayer
10
47.4975593
20
60.0874768
40
0.6512948
50
20.4094124
51
41.4479419
0
ARC
8
back_labelLayer
10
47.5505762
20
60.1166199
40
0.5924128
50
42.7294886
51
71.038073
0
ARC
8
back_labelLayer
10
47.4257566
20
59.7772297
40
0.9539763
50
70.5717133
51
83.9927733
0
ARC
8
back_labelLayer
10
47.3661324
20
59.2928967
40
1.4419152
50
83.6506667
51
90.1753804
0
ARC
8
back_labelLayer
10
47.3765906
20
58.8348104
40
1.9000532
50
90.4484637
51
103.7665585
0
ARC
8
back_labelLayer
10
47.600033
20
57.8925481
40
2.8684283
50
103.6226735
51
112.4319557
0
ARC
8
back_labelLayer
10
47.982989
20
56.9256058
40
3.9083646
50
112.2121673
51
115.9641184
0
ARC
8
back_labelLayer
10
47.369684
20
58.5176008
40
2.6907631
50
106.3568586
51
118.3349957
0
ARC
8
back_labelLayer
10
47.4842882
20
58.1635929
40
3.062735
50
104.5162132
51
106.5489899
0
ARC
8
back_labelLayer
10
47.4002442
20
58.5137642
40
2.7026839
50
90.0714262
51
104.6521202
0
ARC
8
back_labelLayer
10
47.4108518
20
58.7516932
40
2.4647924
50
81.5680211
51
90.3249023
0
ARC
8
back_labelLayer
10
47.5533636
20
59.680125
40
1.5255066
50
68.2273189
51
81.7494502
0
ARC
8
back_labelLayer
10
47.7518563
20
60.1739888
40
0.9932484
50
47.8683
51
68.2934436
0
ARC
8
back_labelLayer
10
47.7840698
20
60.2383109
40
0.9241375
50
19.2331264
51
46.6741136
0
ARC
8
back_labelLayer
10
47.2474085
20
60.038673
40
1.4966546
50
6.3378737
51
19.6815113
0
ARC
8
back_labelLayer
10
46.4541163
20
59.9376371
40
2.296288
50
359.8026369
51
6.6583971
0
ARC
8
back_labelLayer
10
47.011411
20
59.3181246
40
1.6068001
50
269.5791692
51
282.0413493
0
ARC
8
back_labelLayer
10
47.128614
20
58.7982577
40
1.0739386
50
281.7121269
51
306.4593707
0
ARC
8
back_labelLayer
10
47.18056
20
58.7128173
40
0.9743933
50
306.9882445
51
313.8557835
0
ARC
8
back_labelLayer
10
47.1744039
20
58.7110161
40
0.9773763
50
314.1891739
51
347.4269988
0
ARC
8
back_labelLayer
10
46.6848213
20
58.833705
40
1.4819842
50
346.9177134
51
0.2825203
0
ARC
8
back_labelLayer
10
46.2758136
20
58.8469751
40
1.8909833
50
359.8193351
51
359.9981698
0
ARC
8
back_labelLayer
10
47.7220216
20
54.8874989
40
4.2851024
50
91.8564567
51
96.4478064
0
ARC
8
back_labelLayer
10
47.5287847
20
56.5596713
40
2.6018104
50
96.3545915
51
102.9952652
0
ARC
8
back_labelLayer
10
47.266464
20
57.6742088
40
1.456838
50
102.7995758
51
113.2432796
0
ARC
8
back_labelLayer
10
47.0502087
20
58.1914093
40
0.8962889
50
113.5886398
51
121.6806167
0
ARC
8
back_labelLayer
10
46.8999729
20
58.4202106
40
0.6227277
50
120.973409
51
172.4179856
0
ARC
8
back_labelLayer
10
47.1936201
20
58.3615553
40
0.921751
50
171.2121718
51
180.2059
0
ARC
8
back_labelLayer
10
47.1058616
20
58.351351
40
0.8340151
50
179.5265346
51
192.7787886
0
ARC
8
back_labelLayer
10
46.8237341
20
58.2829611
40
0.5437654
50
192.3264455
51
222.0579815
0
ARC
8
back_labelLayer
10
46.8027737
20
58.2704384
40
0.519836
50
222.5807869
51
229.2544914
0
ARC
8
back_labelLayer
10
46.8736627
20
58.361712
40
0.6352827
50
229.7836989
51
254.2724521
0
ARC
8
back_labelLayer
10
46.9681121
20
58.6764547
40
0.96386
50
253.9396722
51
266.4533958
0
ARC
8
back_labelLayer
10
46.9982573
20
59.0238942
40
1.3125271
50
266.0782063
51
270.0590202
0
LINE
8
back_labelLayer
10
52.5226563
20
61.0230866
11
52.3433594
21
60.5273835
0
LINE
8
back_labelLayer
10
52.4664063
20
57.9469147
11
52.4664063
21
57.4301178
0
ARC
8
back_labelLayer
10
51.4739639
20
59.4107689
40
2.1811211
50
256.4243558
51
270.488982
0
ARC
8
back_labelLayer
10
51.2996721
20
58.7305244
40
1.4790029
50
221.7976421
51
256.8020385
0
ARC
8
back_labelLayer
10
51.4684557
20
58.8552313
40
1.688062
50
196.0166824
51
221.1349092
0
ARC
8
back_labelLayer
10
52.3167281
20
59.114508
40
2.5749892
50
183.5913533
51
196.3539844
0
ARC
8
back_labelLayer
10
53.2669161
20
59.1982242
40
3.5286369
50
179.9388068
51
183.981575
0
ARC
8
back_labelLayer
10
52.9582649
20
59.2227234
40
3.2200503
50
169.8978503
51
180.368871
0
ARC
8
back_labelLayer
10
51.8372855
20
59.430087
40
2.0800913
50
153.087499
51
170.1051216
0
ARC
8
back_labelLayer
10
51.4119666
20
59.6333157
40
1.6088875
50
138.6549909
51
152.6853306
0
ARC
8
back_labelLayer
10
51.3325843
20
59.6911654
40
1.5111036
50
101.491295
51
138.3134017
0
ARC
8
back_labelLayer
10
51.5148248
20
58.9326986
40
2.2908375
50
89.589188
51
102.1787694
0
ARC
8
back_labelLayer
10
51.5288386
20
58.589885
40
2.6335933
50
77.7702473
51
89.9475376
0
ARC
8
back_labelLayer
10
51.4790092
20
58.3149701
40
2.9128404
50
74.6795968
51
77.9578473
0
ARC
8
back_labelLayer
10
51.7482489
20
59.2903656
40
1.9009707
50
70.0945062
51
74.7385571
0
ARC
8
back_labelLayer
10
52.0043817
20
59.9922882
40
1.1537803
50
63.5033008
51
70.1862238
0
ARC
8
back_labelLayer
10
52.1370937
20
60.2688616
40
0.8470618
50
62.9237155
51
63.190781
0
ARC
8
back_labelLayer
10
51.3846659
20
58.1146844
40
2.5961915
50
68.3294478
51
74.8831412
0
ARC
8
back_labelLayer
10
51.2477056
20
57.6290584
40
3.1007356
50
74.7801223
51
77.4497112
0
ARC
8
back_labelLayer
10
51.3915035
20
58.3040222
40
2.4106609
50
77.2998472
51
81.7345237
0
ARC
8
back_labelLayer
10
51.4963806
20
59.0348034
40
1.672394
50
81.6910369
51
87.5078369
0
ARC
8
back_labelLayer
10
51.5166194
20
59.4129592
40
1.2937212
50
87.6750846
51
89.9748392
0
ARC
8
back_labelLayer
10
51.4882574
20
59.4125071
40
1.2944966
50
88.719418
51
112.5667823
0
ARC
8
back_labelLayer
10
51.3962738
20
59.7166263
40
0.978879
50
114.4265606
51
161.663301
0
ARC
8
back_labelLayer
10
52.3100341
20
59.3589706
40
1.9594519
50
160.1418448
51
175.1367963
0
ARC
8
back_labelLayer
10
53.5677043
20
59.217743
40
3.2247475
50
174.5309545
51
180.154913
0
ARC
8
back_labelLayer
10
53.1692552
20
59.1944293
40
2.8263241
50
179.704131
51
188.0743645
0
ARC
8
back_labelLayer
10
52.1512456
20
59.045483
40
1.7974913
50
187.9315015
51
200.3885321
0
ARC
8
back_labelLayer
10
51.6008016
20
58.8415714
40
1.2104921
50
200.4183143
51
216.6392538
0
ARC
8
back_labelLayer
10
51.3700418
20
58.6766073
40
0.9268973
50
216.9695274
51
261.3103178
0
ARC
8
back_labelLayer
10
51.4718812
20
59.1514003
40
1.411923
50
260.1359623
51
270.2692264
0
ARC
8
back_labelLayer
10
51.4671805
20
60.1824622
40
2.4429956
50
270.2658457
51
286.2891336
0
ARC
8
back_labelLayer
10
51.3186554
20
60.7363478
40
3.0163336
50
286.0461205
51
292.3653947
0
ARC
8
back_labelLayer
10
51.7141852
20
58.9099148
40
1.6600107
50
282.034397
51
296.9454678
0
ARC
8
back_labelLayer
10
51.5434594
20
59.6793067
40
2.4480984
50
272.5980818
51
282.1878441
0
ARC
8
back_labelLayer
10
51.4945047
20
60.4302176
40
3.2004909
50
269.9655106
51
272.8642159
0
LINE
8
back_labelLayer
10
53.9289063
20
59.2723053
11
53.9570313
21
59.2723053
0
LINE
8
back_labelLayer
10
54.4175781
20
59.8348053
11
55.6621094
21
61.1531647
0
LINE
8
back_labelLayer
10
55.6621094
20
61.1531647
11
56.3546875
21
61.1531647
0
LINE
8
back_labelLayer
10
56.3546875
20
61.1531647
11
54.79375
21
59.5113678
0
LINE
8
back_labelLayer
10
54.79375
20
59.5113678
11
56.4636719
21
57.3000397
0
LINE
8
back_labelLayer
10
56.4636719
20
57.3000397
11
55.7570313
21
57.3000397
0
LINE
8
back_labelLayer
10
55.7570313
20
57.3000397
11
54.3964844
21
59.1211335
0
LINE
8
back_labelLayer
10
54.3964844
20
59.1211335
11
53.9570313
21
58.741446
0
LINE
8
back_labelLayer
10
53.9570313
20
58.741446
11
53.9570313
21
57.3000397
0
LINE
8
back_labelLayer
10
53.9570313
20
57.3000397
11
53.3804688
21
57.3000397
0
LINE
8
back_labelLayer
10
53.3804688
20
57.3000397
11
53.3804688
21
62.7703522
0
LINE
8
back_labelLayer
10
53.3804688
20
62.7703522
11
53.9570313
21
62.7703522
0
LINE
8
back_labelLayer
10
53.9570313
20
62.7703522
11
53.9570313
21
59.8699616
0
ARC
8
back_labelLayer
10
56.7766533
20
57.2764631
40
3.4545122
50
142.3232496
51
144.7076005
0
ARC
8
back_labelLayer
10
58.6161309
20
55.857657
40
5.7775895
50
140.4330137
51
142.3366859
0
ARC
8
back_labelLayer
10
61.0147787
20
53.88315
40
8.8843832
50
139.2799659
51
140.4703
0
ARC
8
back_labelLayer
10
63.7855323
20
51.5004879
40
12.5387165
50
138.34171
51
139.2877517
0
ARC
8
back_labelLayer
10
50.0685245
20
59.8772315
40
3.8885135
50
358.2738257
51
359.8928808
0
ARC
8
back_labelLayer
10
47.0427607
20
59.9615536
40
6.9154477
50
357.5040749
51
358.3306689
0
ARC
8
back_labelLayer
10
42.5119647
20
60.1616811
40
11.450661
50
356.6325838
51
357.4909201
0
ARC
8
back_labelLayer
10
34.9893666
20
60.6004099
40
18.9860414
50
356.0329226
51
356.6443415
0
ARC
8
back_labelLayer
10
29.5099848
20
60.9712362
40
24.4779509
50
356.0200962
51
356.0543252
0
LINE
8
right_outsideCutPath
10
104
20
78
11
104
21
65.0625
0
LINE
8
right_outsideCutPath
10
104
20
65.0625
11
101
21
65.0625
0
LINE
8
right_outsideCutPath
10
101
20
65.0625
11
101
21
54.9375
0
LINE
8
right_outsideCutPath
10
101
20
54.9375
11
104
21
54.9375
0
LINE
8
right_outsideCutPath
10
104
20
54.9375
11
104
21
44.8125
0
LINE
8
right_outsideCutPath
10
104
20
44.8125
11
104
21
42
0
LINE
8
right_outsideCutPath
10
104
20
42
11
114.8125
21
42
0
LINE
8
right_outsideCutPath
10
114.8125
20
42
11
114.8125
21
45
0
LINE
8
right_outsideCutPath
10
114.8125
20
45
11
124.9375
21
45
0
LINE
8
right_outsideCutPath
10
124.9375
20
45
11
124.9375
21
42
0
LINE
8
right_outsideCutPath
10
124.9375
20
42
11
135.0625
21
42
0
LINE
8
right_outsideCutPath
10
135.0625
20
42
11
135.0625
21
45
0
LINE
8
right_outsideCutPath
10
135.0625
20
45
11
145.1875
21
45
0
LINE
8
right_outsideCutPath
10
145.1875
20
45
11
145.1875
21
42
0
LINE
8
right_outsideCutPath
10
145.1875
20
42
11
155.3125
21
42
0
LINE
8
right_outsideCutPath
10
155.3125
20
42
11
156
21
42
0
LINE
8
right_outsideCutPath
10
156
20
42
11
156
21
54.9375
0
LINE
8
right_outsideCutPath
10
156
20
54.9375
11
159
21
54.9375
0
LINE
8
right_outsideCutPath
10
159
20
54.9375
11
159
21
65.0625
0
LINE
8
right_outsideCutPath
10
159
20
65.0625
11
156
21
65.0625
0
LINE
8
right_outsideCutPath
10
156
20
65.0625
11
156
21
75.1875
0
LINE
8
right_outsideCutPath
10
156
20
75.1875
11
156
21
78
0
LINE
8
right_outsideCutPath
10
156
20
78
11
104
21
78
0
LINE
8
right_labelLayer
10
124.7705078
20
62.0109588
11
124.6896484
21
61.4695525
0
LINE
8
right_labelLayer
10
123.1357422
20
60.1968963
11
123.1357422
21
58.1297088
0
LINE
8
right_labelLayer
10
123.1357422
20
58.1297088
11
122.5521484
21
58.1297088
0
LINE
8
right_labelLayer
10
122.5521484
20
58.1297088
11
122.5521484
21
61.9828338
0
LINE
8
right_labelLayer
10
122.5521484
20
61.9828338
11
123.0337891
21
61.9828338
0
LINE
8
right_labelLayer
10
123.0337891
20
61.9828338
11
123.1005859
21
61.2691619
0
LINE
8
right_labelLayer
10
123.1005859
20
61.2691619
11
123.1287109
21
61.2691619
0
ARC
8
right_labelLayer
10
124.3159489
20
59.3738994
40
2.6792535
50
84.9923694
51
90.1280534
0
ARC
8
right_labelLayer
10
124.3802961
20
60.0948632
40
1.9554252
50
78.4891569
51
85.0266452
0
ARC
8
right_labelLayer
10
124.1305579
20
58.958996
40
2.5720568
50
77.445335
51
81.6359849
0
ARC
8
right_labelLayer
10
124.2426191
20
59.7314039
40
1.7915641
50
81.5884458
51
87.1916113
0
ARC
8
right_labelLayer
10
124.2669651
20
60.1536905
40
1.3685967
50
87.3434322
51
89.9661612
0
ARC
8
right_labelLayer
10
124.2613056
20
60.5111126
40
1.0111949
50
89.6335219
51
137.08808
0
ARC
8
right_labelLayer
10
124.5094536
20
60.2320593
40
1.3833922
50
135.6208629
51
138.8377363
0
ARC
8
right_labelLayer
10
124.4731066
20
60.2675384
40
1.3326792
50
138.9575576
51
174.542238
0
ARC
8
right_labelLayer
10
124.9071306
20
60.1996273
40
1.7713904
50
173.6908091
51
180.088336
0
ARC
8
right_labelLayer
10
124.8457584
20
60.301787
40
1.9708035
50
139.4139096
51
150.6033337
0
ARC
8
right_labelLayer
10
124.4924013
20
60.6045768
40
1.5054616
50
124.2321445
51
139.4160732
0
ARC
8
right_labelLayer
10
124.3034569
20
60.8897866
40
1.1633778
50
89.6796785
51
124.4405395
0
LINE
8
right_labelLayer
10
126.0748047
20
61.9828338
11
126.0748047
21
58.1297088
0
LINE
8
right_labelLayer
10
126.0748047
20
58.1297088
11
125.4912109
21
58.1297088
0
LINE
8
right_labelLayer
10
125.4912109
20
58.1297088
11
125.4912109
21
61.9828338
0
LINE
8
right_labelLayer
10
125.4912109
20
61.9828338
11
126.0748047
21
61.9828338
0
ARC
8
right_labelLayer
10
126.0886691
20
63.0309765
40
0.6466893
50
170.8452521
51
180.3545808
0
ARC
8
right_labelLayer
10
125.8465814
20
63.0714533
40
0.4012478
50
155.9680056
51
171.0515598
0
ARC
8
right_labelLayer
10
125.729319
20
63.1234748
40
0.2729644
50
133.7880408
51
155.9170826
0
ARC
8
right_labelLayer
10
125.7726097
20
63.0756146
40
0.3374769
50
92.6445721
51
133.4710372
0
ARC
8
right_labelLayer
10
125.7862814
20
62.9683145
40
0.4453787
50
89.9688665
51
93.7646735
0
ARC
8
right_labelLayer
10
125.7918521
20
63.0698889
40
0.3438456
50
46.370802
51
90.8879602
0
ARC
8
right_labelLayer
10
125.8260706
20
63.1052156
40
0.2946652
50
17.7253203
51
46.4472188
0
ARC
8
right_labelLayer
10
125.6664941
20
63.0502633
40
0.4634118
50
4.9428468
51
18.190192
0
ARC
8
right_labelLayer
10
125.4635031
20
63.028319
40
0.6675529
50
359.8845955
51
5.3181472
0
ARC
8
right_labelLayer
10
125.5272552
20
63.022874
40
0.6038134
50
349.8344521
51
0.3890841
0
ARC
8
right_labelLayer
10
125.7470803
20
62.9818652
40
0.3802046
50
332.6321466
51
350.0706788
0
ARC
8
right_labelLayer
10
125.8326363
20
62.9396176
40
0.284809
50
313.6153998
51
332.2677724
0
ARC
8
right_labelLayer
10
125.7914025
20
62.9771625
40
0.3404576
50
269.1788646
51
314.2807796
0
ARC
8
right_labelLayer
10
125.7826554
20
63.0074263
40
0.3707065
50
250.4998995
51
270.5978504
0
ARC
8
right_labelLayer
10
125.7714386
20
62.9654809
40
0.3274408
50
225.1301903
51
249.8999876
0
ARC
8
right_labelLayer
10
125.7538724
20
62.946075
40
0.3012973
50
197.7933555
51
224.8941211
0
ARC
8
right_labelLayer
10
125.9182722
20
63.002413
40
0.4750614
50
184.992591
51
198.2040208
0
ARC
8
right_labelLayer
10
126.1309937
20
63.025536
40
0.6890029
50
179.8803856
51
185.3686964
0
LINE
8
right_labelLayer
10
129.1333984
20
61.9828338
11
130.4658203
21
61.9828338
0
LINE
8
right_labelLayer
10
130.4658203
20
61.9828338
11
130.4658203
21
61.6136931
0
LINE
8
right_labelLayer
10
130.4658203
20
61.6136931
11
129.7521484
21
61.5293181
0
LINE
8
right_labelLayer
10
128.4373047
20
58.7414275
11
129.1193359
21
58.7414275
0
LINE
8
right_labelLayer
10
128.9330078
20
58.2175994
11
128.2333984
21
58.2175994
0
ARC
8
right_labelLayer
10
129.0084509
20
60.9407658
40
0.9484092
50
29.4583348
51
38.3576236
0
ARC
8
right_labelLayer
10
128.6209255
20
60.7195382
40
1.3946321
50
23.1844947
51
29.542329
0
ARC
8
right_labelLayer
10
128.251355
20
60.5556357
40
1.7988914
50
21.2505492
51
23.3491213
0
ARC
8
right_labelLayer
10
128.8796601
20
60.8055137
40
1.1227526
50
6.8505065
51
20.9872221
0
ARC
8
right_labelLayer
10
128.5634432
20
60.7626392
40
1.441834
50
359.8711322
51
7.043248
0
ARC
8
right_labelLayer
10
128.6674813
20
60.745486
40
1.3378645
50
342.564993
51
0.5957363
0
ARC
8
right_labelLayer
10
128.9142267
20
60.6773509
40
1.0820772
50
310.6097645
51
342.0923589
0
ARC
8
right_labelLayer
10
128.7758629
20
60.8382932
40
1.2943198
50
284.9315682
51
310.6222631
0
ARC
8
right_labelLayer
10
128.602717
20
61.4450161
40
1.9252013
50
272.5334828
51
285.2579928
0
ARC
8
right_labelLayer
10
128.5581988
20
62.0530616
40
2.5346814
50
269.969192
51
272.9312629
0
ARC
8
right_labelLayer
10
128.5526756
20
61.3939563
40
1.8755803
50
263.4836352
51
270.127091
0
ARC
8
right_labelLayer
10
128.5221057
20
61.1036542
40
1.5836866
50
259.4961998
51
263.390544
0
ARC
8
right_labelLayer
10
128.7112107
20
58.6244596
40
1.0384957
50
117.3935849
51
128.4094616
0
ARC
8
right_labelLayer
10
128.4438552
20
58.9561357
40
0.6125052
50
128.0881797
51
147.1401051
0
ARC
8
right_labelLayer
10
128.2998263
20
59.0527891
40
0.4390887
50
147.5368758
51
180.2592238
0
ARC
8
right_labelLayer
10
128.1631851
20
59.0470639
40
0.302466
50
179.2917852
51
198.3581932
0
ARC
8
right_labelLayer
10
128.1065577
20
59.0321817
40
0.2440616
50
199.229277
51
239.5690442
0
ARC
8
right_labelLayer
10
128.1534676
20
59.0969925
40
0.3237937
50
238.2203851
51
239.8465576
0
ARC
8
right_labelLayer
10
128.1909722
20
59.1741203
40
0.4093728
50
240.730168
51
254.5027162
0
ARC
8
right_labelLayer
10
128.3027025
20
59.55914
40
0.8102621
50
254.1637391
51
262.2123925
0
ARC
8
right_labelLayer
10
128.391212
20
60.1773608
40
1.4347797
50
262.055713
51
267.208231
0
ARC
8
right_labelLayer
10
128.4339637
20
60.9614645
40
2.2200397
50
267.091831
51
270.0862263
0
ARC
8
right_labelLayer
10
129.1320918
20
56.3525635
40
2.388898
50
81.5744025
51
90.3059411
0
ARC
8
right_labelLayer
10
129.2631306
20
57.2071645
40
1.5243269
50
68.3671141
51
81.7399421
0
ARC
8
right_labelLayer
10
129.4342774
20
57.6445489
40
1.0546572
50
52.1879544
51
68.250134
0
ARC
8
right_labelLayer
10
129.5540313
20
57.8059085
40
0.8537719
50
8.6201232
51
51.8982765
0
ARC
8
right_labelLayer
10
129.1343108
20
57.7170988
40
1.2823037
50
359.743106
51
9.7326711
0
ARC
8
right_labelLayer
10
129.1531131
20
57.6954671
40
1.2635883
50
340.5268498
51
0.7201823
0
ARC
8
right_labelLayer
10
129.3387606
20
57.6492433
40
1.073307
50
302.9903976
51
339.549439
0
ARC
8
right_labelLayer
10
129.1433271
20
57.897725
40
1.3884322
50
303.1871162
51
304.1717038
0
ARC
8
right_labelLayer
10
128.9622453
20
58.2113649
40
1.7501491
50
286.2542275
51
302.527975
0
ARC
8
right_labelLayer
10
128.6317181
20
59.3015912
40
2.8893384
50
276.4939536
51
286.4953942
0
ARC
8
right_labelLayer
10
128.4254814
20
61.025605
40
4.6256263
50
269.7545303
51
276.6169566
0
ARC
8
right_labelLayer
10
128.3902605
20
59.6696865
40
3.2697015
50
262.5634534
51
270.2699205
0
ARC
8
right_labelLayer
10
128.2301162
20
58.4827149
40
2.0719931
50
251.2101927
51
262.7064126
0
ARC
8
right_labelLayer
10
127.999295
20
57.8052217
40
1.3562588
50
235.9668491
51
251.2229161
0
ARC
8
right_labelLayer
10
127.7546436
20
57.4561981
40
0.9301228
50
208.9036403
51
236.4231348
0
ARC
8
right_labelLayer
10
127.7771047
20
57.4467832
40
0.9454283
50
182.2080286
51
207.7461442
0
ARC
8
right_labelLayer
10
128.0629403
20
57.4753388
40
1.2322764
50
179.9784406
51
183.0227455
0
ARC
8
right_labelLayer
10
127.7228695
20
57.4914581
40
0.8923427
50
138.3916024
51
181.0052678
0
ARC
8
right_labelLayer
10
127.817103
20
57.4067704
40
1.0190373
50
113.8121572
51
138.3496242
0
ARC
8
right_labelLayer
10
127.9958488
20
57.0207822
40
1.444355
50
102.2870379
51
114.1172603
0
ARC
8
right_labelLayer
10
127.9396828
20
58.983196
40
0.6056927
50
216.5861348
51
245.4969283
0
ARC
8
right_labelLayer
10
128.0265886
20
59.0569022
40
0.7194437
50
215.465249
51
217.1742586
0
ARC
8
right_labelLayer
10
127.8819671
20
58.9524427
40
0.5410472
50
182.1767304
51
215.3415447
0
ARC
8
right_labelLayer
10
128.0107223
20
58.9662406
40
0.6702926
50
179.9840223
51
182.9373036
0
ARC
8
right_labelLayer
10
128.0077798
20
58.9720688
40
0.667374
50
161.7226243
51
180.4843294
0
ARC
8
right_labelLayer
10
127.9344001
20
58.9920922
40
0.5914301
50
144.4963417
51
161.3351182
0
ARC
8
right_labelLayer
10
128.1300158
20
58.8463006
40
0.8353613
50
132.7260658
51
144.1478403
0
ARC
8
right_labelLayer
10
128.4435068
20
58.5115238
40
1.2939958
50
125.2213544
51
132.8654675
0
ARC
8
right_labelLayer
10
128.7586337
20
58.0739324
40
1.8332296
50
121.2352113
51
125.3795488
0
ARC
8
right_labelLayer
10
128.1999417
20
60.5864634
40
1.0230861
50
215.1640594
51
247.4747924
0
ARC
8
right_labelLayer
10
128.3909121
20
60.7405824
40
1.2680668
50
212.47127
51
215.8874515
0
ARC
8
right_labelLayer
10
128.340699
20
60.7046613
40
1.2064236
50
183.0161012
51
212.3123108
0
ARC
8
right_labelLayer
10
128.6054662
20
60.7341718
40
1.4724587
50
179.9760653
51
183.6207409
0
ARC
8
right_labelLayer
10
128.8190431
20
60.7490287
40
1.6860954
50
166.8195583
51
180.4839629
0
ARC
8
right_labelLayer
10
128.2597024
20
60.8902504
40
1.1093331
50
132.3287715
51
167.3340616
0
ARC
8
right_labelLayer
10
128.3345333
20
60.7826877
40
1.2393617
50
106.2188579
51
131.5377934
0
ARC
8
right_labelLayer
10
128.5238754
20
60.1696189
40
1.8809458
50
93.6329488
51
106.5408984
0
ARC
8
right_labelLayer
10
128.5856915
20
59.4755566
40
2.5775911
50
89.9380915
51
94.0266836
0
ARC
8
right_labelLayer
10
128.595699
20
59.8162205
40
2.2369374
50
82.5852242
51
90.1849919
0
ARC
8
right_labelLayer
10
128.6640429
20
60.3450293
40
1.7037307
50
74.0089645
51
82.5693815
0
ARC
8
right_labelLayer
10
127.9792308
20
57.4748624
40
0.5861209
50
179.2207448
51
200.9356181
0
ARC
8
right_labelLayer
10
127.9095313
20
57.4587228
40
0.5153497
50
202.028662
51
236.1457543
0
ARC
8
right_labelLayer
10
128.014583
20
57.5921121
40
0.6847683
50
235.0636297
51
238.5042661
0
ARC
8
right_labelLayer
10
128.1367023
20
57.8102319
40
0.9346057
50
239.1065858
51
254.486324
0
ARC
8
right_labelLayer
10
128.2995311
20
58.3716631
40
1.5191485
50
254.2324464
51
263.4937547
0
ARC
8
right_labelLayer
10
128.4018142
20
59.2380054
40
2.3915037
50
263.4109146
51
270.145667
0
ARC
8
right_labelLayer
10
128.4128257
20
60.0442326
40
3.197727
50
269.9116389
51
269.9976628
0
ARC
8
right_labelLayer
10
128.4266816
20
60.7696738
40
3.9231931
50
269.7957384
51
275.3991396
0
ARC
8
right_labelLayer
10
128.5735129
20
59.2623242
40
2.4087192
50
275.2957082
51
283.3515561
0
ARC
8
right_labelLayer
10
128.8127383
20
58.2769907
40
1.3947843
50
283.1370814
51
295.8573384
0
ARC
8
right_labelLayer
10
128.9899779
20
57.890048
40
0.9693257
50
296.404888
51
301.800801
0
ARC
8
right_labelLayer
10
129.0594939
20
57.7942237
40
0.8512968
50
301.2230296
51
318.6238003
0
ARC
8
right_labelLayer
10
129.2162411
20
57.6494301
40
0.6379871
50
319.0765382
51
1.1406781
0
ARC
8
right_labelLayer
10
129.064543
20
57.6683866
40
0.7895833
50
359.5460367
51
10.9904555
0
ARC
8
right_labelLayer
10
129.3695297
20
57.7304206
40
0.4783717
50
10.6608509
51
30.9361421
0
ARC
8
right_labelLayer
10
129.4662307
20
57.7840854
40
0.3678575
50
31.5096097
51
58.077709
0
ARC
8
right_labelLayer
10
129.3755976
20
57.621801
40
0.5535942
50
58.9972851
51
73.8585978
0
ARC
8
right_labelLayer
10
129.1924053
20
57.0220784
40
1.1806401
50
73.4100644
51
81.5906758
0
ARC
8
right_labelLayer
10
129.0371917
20
56.0176313
40
2.1969971
50
81.4172377
51
86.5756585
0
ARC
8
right_labelLayer
10
128.942076
20
54.5042581
40
3.7133524
50
86.5054317
51
90.139919
0
ARC
8
right_labelLayer
10
128.2250528
20
56.8761059
40
1.3415194
50
89.6435589
51
100.0208977
0
ARC
8
right_labelLayer
10
128.1407364
20
57.3347864
40
0.8751707
50
99.8103292
51
116.8229716
0
ARC
8
right_labelLayer
10
128.0586021
20
57.5079963
40
0.6835529
50
117.2304602
51
130.5023738
0
ARC
8
right_labelLayer
10
128.016432
20
57.5621939
40
0.6149616
50
130.7944593
51
169.0413384
0
ARC
8
right_labelLayer
10
128.3269768
20
57.4890593
40
0.9338337
50
168.2580411
51
180.3819734
0
ARC
8
right_labelLayer
10
128.8487034
20
60.7401364
40
1.1391664
50
179.5617647
51
191.6528445
0
ARC
8
right_labelLayer
10
128.4526248
20
60.6545635
40
0.7339769
50
191.3555246
51
213.3660343
0
ARC
8
right_labelLayer
10
128.3575078
20
60.5996414
40
0.6243646
50
213.9573447
51
227.7970956
0
ARC
8
right_labelLayer
10
128.4402601
20
60.7000073
40
0.7543269
50
228.2620379
51
254.7341761
0
ARC
8
right_labelLayer
10
128.5459856
20
61.0624374
40
1.1318248
50
254.4016911
51
267.4348327
0
ARC
8
right_labelLayer
10
128.5735632
20
61.4322746
40
1.502566
50
267.0154658
51
270.0324449
0
ARC
8
right_labelLayer
10
128.5915963
20
61.2009756
40
1.2713829
50
269.2256455
51
284.3773472
0
ARC
8
right_labelLayer
10
128.7648837
20
60.597243
40
0.6437802
50
282.7796739
51
346.4828448
0
ARC
8
right_labelLayer
10
128.2467932
20
60.7439951
40
1.1820181
50
345.4362376
51
0.746558
0
ARC
8
right_labelLayer
10
128.1739685
20
60.7773411
40
1.2548707
50
359.1806329
51
15.0431331
0
ARC
8
right_labelLayer
10
128.7425744
20
60.9432083
40
0.6628201
50
13.9535849
51
77.6673756
0
ARC
8
right_labelLayer
10
128.5794368
20
60.3585961
40
1.2692551
50
76.1094642
51
90.7028507
0
ARC
8
right_labelLayer
10
128.5550176
20
60.4032471
40
1.2245405
50
89.5859284
51
101.3334396
0
ARC
8
right_labelLayer
10
128.4675069
20
60.8206298
40
0.7981083
50
101.0620134
51
121.9739339
0
ARC
8
right_labelLayer
10
128.4060021
20
60.931269
40
0.671716
50
122.5209762
51
134.9966886
0
ARC
8
right_labelLayer
10
128.4313284
20
60.9160932
40
0.7003916
50
135.5839935
51
163.0016128
0
ARC
8
right_labelLayer
10
128.8011945
20
60.7948649
40
1.0895678
50
162.5912416
51
175.7342867
0
ARC
8
right_labelLayer
10
129.2447677
20
60.7511667
40
1.5351991
50
175.3393019
51
180.0864865
0
LINE
8
right_labelLayer
10
134.4771484
20
58.1297088
11
133.8935547
21
58.1297088
0
LINE
8
right_labelLayer
10
133.8935547
20
58.1297088
11
133.8935547
21
60.6222869
0
LINE
8
right_labelLayer
10
131.8404297
20
60.1441619
11
131.8404297
21
58.1297088
0
LINE
8
right_labelLayer
10
131.8404297
20
58.1297088
11
131.2568359
21
58.1297088
0
LINE
8
right_labelLayer
10
131.2568359
20
58.1297088
11
131.2568359
21
63.6000213
0
LINE
8
right_labelLayer
10
131.2568359
20
63.6000213
11
131.8404297
21
63.6000213
0
LINE
8
right_labelLayer
10
131.8404297
20
63.6000213
11
131.8404297
21
61.9441619
0
LINE
8
right_labelLayer
10
131.8123047
20
61.4484588
11
131.8474609
21
61.4484588
0
LINE
8
right_labelLayer
10
134.4771484
20
60.6433806
11
134.4771484
21
58.1297088
0
ARC
8
right_labelLayer
10
132.2439139
20
60.6317477
40
1.6496679
50
359.6714069
51
8.6877457
0
ARC
8
right_labelLayer
10
132.8553232
20
60.7287136
40
1.0306331
50
8.4931545
51
22.6579838
0
ARC
8
right_labelLayer
10
133.1659696
20
60.8578095
40
0.6942309
50
22.7023626
51
42.3420094
0
ARC
8
right_labelLayer
10
133.2008829
20
60.8735134
40
0.6579554
50
43.3790917
51
71.5385722
0
ARC
8
right_labelLayer
10
133.0703083
20
60.5086497
40
1.0454236
50
71.0828628
51
84.3690894
0
ARC
8
right_labelLayer
10
133.0116946
20
60.0102625
40
1.547186
50
84.0198998
51
90.1509945
0
ARC
8
right_labelLayer
10
132.9950409
20
59.7914356
40
1.7660523
50
89.5919848
51
100.3594747
0
ARC
8
right_labelLayer
10
132.8699897
20
60.4486072
40
1.0971169
50
100.1068248
51
118.0846882
0
ARC
8
right_labelLayer
10
132.7428006
20
60.6981857
40
0.817065
50
118.4551294
51
139.6706319
0
ARC
8
right_labelLayer
10
132.8704926
20
60.6109061
40
0.9710286
50
140.6208568
51
160.5048468
0
ARC
8
right_labelLayer
10
133.5435435
20
60.3617457
40
1.6886761
50
160.1567071
51
171.5313044
0
ARC
8
right_labelLayer
10
134.6325516
20
60.1892029
40
2.7912393
50
171.3201983
51
178.3406812
0
ARC
8
right_labelLayer
10
135.6068516
20
60.1456771
40
3.7664221
50
178.1080065
51
180.0230502
0
ARC
8
right_labelLayer
10
126.5906414
20
61.937899
40
5.2497921
50
357.8674468
51
0.0683527
0
ARC
8
right_labelLayer
10
128.3742293
20
61.8698498
40
3.4649074
50
354.9827694
51
357.8944358
0
ARC
8
right_labelLayer
10
129.5517792
20
61.7673104
40
2.2829019
50
351.971281
51
354.961774
0
ARC
8
right_labelLayer
10
132.835971
20
60.8301114
40
1.1659784
50
119.831622
51
147.9725885
0
ARC
8
right_labelLayer
10
132.9771917
20
60.6131571
40
1.4245094
50
116.6658755
51
120.4181903
0
ARC
8
right_labelLayer
10
133.0035191
20
60.5439753
40
1.4981673
50
96.6652353
51
116.378252
0
ARC
8
right_labelLayer
10
133.0603226
20
60.152064
40
1.8940544
50
89.8927766
51
96.9959109
0
ARC
8
right_labelLayer
10
133.0784832
20
59.6784341
40
2.367726
50
80.6862872
51
90.3536901
0
ARC
8
right_labelLayer
10
133.2259156
20
60.5456014
40
1.4881391
50
65.6022703
51
80.8844326
0
ARC
8
right_labelLayer
10
133.4029479
20
60.9443195
40
1.0519058
50
46.7401139
51
65.4130227
0
ARC
8
right_labelLayer
10
133.4149838
20
60.9823152
40
1.0161339
50
19.2204083
51
45.7660765
0
ARC
8
right_labelLayer
10
132.8290699
20
60.7651118
40
1.6409381
50
6.4734008
51
19.6468026
0
ARC
8
right_labelLayer
10
131.9535875
20
60.6524324
40
2.523577
50
359.7944862
51
6.7743995
0
LINE
8
right_labelLayer
10
137.4478516
20
58.6113494
11
137.4478516
21
58.164865
0
LINE
8
right_labelLayer
10
135.7181641
20
59.2371306
11
135.7181641
21
61.5293181
0
LINE
8
right_labelLayer
10
135.7181641
20
61.5293181
11
135.1662109
21
61.5293181
0
LINE
8
right_labelLayer
10
135.1662109
20
61.5293181
11
135.1662109
21
61.8105681
0
LINE
8
right_labelLayer
10
135.1662109
20
61.8105681
11
135.7181641
21
62.0531463
0
LINE
8
right_labelLayer
10
135.7181641
20
62.0531463
11
135.9642578
21
62.8758025
0
LINE
8
right_labelLayer
10
135.9642578
20
62.8758025
11
136.3017578
21
62.8758025
0
LINE
8
right_labelLayer
10
136.3017578
20
62.8758025
11
136.3017578
21
61.9828338
0
LINE
8
right_labelLayer
10
136.3017578
20
61.9828338
11
137.4197266
21
61.9828338
0
LINE
8
right_labelLayer
10
137.4197266
20
61.9828338
11
137.4197266
21
61.5293181
0
LINE
8
right_labelLayer
10
137.4197266
20
61.5293181
11
136.3017578
21
61.5293181
0
LINE
8
right_labelLayer
10
136.3017578
20
61.5293181
11
136.3017578
21
59.26174
0
ARC
8
right_labelLayer
10
136.9245114
20
60.4576331
40
1.9166004
50
269.8803132
51
278.3027971
0
ARC
8
right_labelLayer
10
136.9436842
20
60.3024684
40
1.7602965
50
278.4145937
51
279.009251
0
ARC
8
right_labelLayer
10
136.727671
20
61.6825885
40
3.1572178
50
278.9589785
51
280.5103195
0
ARC
8
right_labelLayer
10
136.9326168
20
60.5828699
40
2.0385656
50
280.4848914
51
282.6267735
0
ARC
8
right_labelLayer
10
137.1124065
20
59.7841093
40
1.2198218
50
282.5876473
51
285.5796174
0
ARC
8
right_labelLayer
10
137.2025384
20
59.4526378
40
0.8763246
50
285.7238148
51
286.2562754
0
ARC
8
right_labelLayer
10
137.2024874
20
58.6838254
40
0.5740414
50
287.9889567
51
295.3047586
0
ARC
8
right_labelLayer
10
137.0640378
20
59.1027068
40
1.0152066
50
283.3069675
51
288.1197214
0
ARC
8
right_labelLayer
10
136.9177812
20
59.7127785
40
1.6425632
50
280.0071046
51
283.3736158
0
ARC
8
right_labelLayer
10
136.8200891
20
60.2428846
40
2.181584
50
279.1860596
51
280.1144988
0
ARC
8
right_labelLayer
10
136.7598522
20
60.585551
40
2.5294766
50
275.5260304
51
279.2938957
0
ARC
8
right_labelLayer
10
136.8275405
20
59.8785719
40
1.8192651
50
270.8933822
51
275.5482951
0
ARC
8
right_labelLayer
10
136.8360353
20
59.5573504
40
1.4979542
50
270.0037298
51
270.7600711
0
ARC
8
right_labelLayer
10
136.8125824
20
59.5834713
40
1.524257
50
253.78477
51
270.8852789
0
ARC
8
right_labelLayer
10
136.6319984
20
58.9676141
40
0.8824726
50
190.3817627
51
253.8772501
0
ARC
8
right_labelLayer
10
137.5524369
20
59.2164837
40
1.8343889
50
179.355094
51
192.8477427
0
ARC
8
right_labelLayer
10
137.4768896
20
59.2543892
40
1.1751548
50
179.6416003
51
189.7506163
0
ARC
8
right_labelLayer
10
137.0620419
20
59.1803949
40
0.7537729
50
189.5479093
51
205.7873549
0
ARC
8
right_labelLayer
10
136.8915558
20
59.1017789
40
0.5660742
50
206.1294715
51
221.4084052
0
ARC
8
right_labelLayer
10
136.8724389
20
59.0872732
40
0.5421447
50
221.5949219
51
262.3505224
0
ARC
8
right_labelLayer
10
136.9179033
20
59.3210764
40
0.7800438
50
261.3267161
51
270.1913099
0
LINE
8
bottom_outsideCutPath
10
165
20
58
11
165
21
47.1875
0
LINE
8
bottom_outsideCutPath
10
165
20
47.1875
11
162
21
47.1875
0
LINE
8
bottom_outsideCutPath
10
162
20
47.1875
11
162
21
37.0625
0
LINE
8
bottom_outsideCutPath
10
162
20
37.0625
11
165
21
37.0625
0
LINE
8
bottom_outsideCutPath
10
165
20
37.0625
11
165
21
26.9375
0
LINE
8
bottom_outsideCutPath
10
165
20
26.9375
11
162
21
26.9375
0
LINE
8
bottom_outsideCutPath
10
162
20
26.9375
11
162
21
16.8125
0
LINE
8
bottom_outsideCutPath
10
162
20
16.8125
11
165
21
16.8125
0
LINE
8
bottom_outsideCutPath
10
165
20
16.8125
11
165
21
6.6875
0
LINE
8
bottom_outsideCutPath
10
165
20
6.6875
11
165
21
6
0
LINE
8
bottom_outsideCutPath
10
165
20
6
11
175.5625
21
6
0
LINE
8
bottom_outsideCutPath
10
175.5625
20
6
11
175.5625
21
3
0
LINE
8
bottom_outsideCutPath
10
175.5625
20
3
11
185.6875
21
3
0
LINE
8
bottom_outsideCutPath
10
185.6875
20
3
11
185.6875
21
6
0
LINE
8
bottom_outsideCutPath
10
185.6875
20
6
11
195.8125
21
6
0
LINE
8
bottom_outsideCutPath
10
195.8125
20
6
11
195.8125
21
3
0
LINE
8
bottom_outsideCutPath
10
195.8125
20
3
11
205.9375
21
3
0
LINE
8
bottom_outsideCutPath
10
205.9375
20
3
11
205.9375
21
6
0
LINE
8
bottom_outsideCutPath
10
205.9375
20
6
11
216.0625
21
6
0
LINE
8
bottom_outsideCutPath
10
216.0625
20
6
11
216.0625
21
3
0
LINE
8
bottom_outsideCutPath
10
216.0625
20
3
11
226.1875
21
3
0
LINE
8
bottom_outsideCutPath
10
226.1875
20
3
11
226.1875
21
6
0
LINE
8
bottom_outsideCutPath
10
226.1875
20
6
11
236.3125
21
6
0
LINE
8
bottom_outsideCutPath
10
236.3125
20
6
11
236.3125
21
3
0
LINE
8
bottom_outsideCutPath
10
236.3125
20
3
11
246.4375
21
3
0
LINE
8
bottom_outsideCutPath
10
246.4375
20
3
11
246.4375
21
6
0
LINE
8
bottom_outsideCutPath
10
246.4375
20
6
11
256.5625
21
6
0
LINE
8
bottom_outsideCutPath
10
256.5625
20
6
11
257
21
6
0
LINE
8
bottom_outsideCutPath
10
257
20
6
11
257
21
16.8125
0
LINE
8
bottom_outsideCutPath
10
257
20
16.8125
11
260
21
16.8125
0
LINE
8
bottom_outsideCutPath
10
260
20
16.8125
11
260
21
26.9375
0
LINE
8
bottom_outsideCutPath
10
260
20
26.9375
11
257
21
26.9375
0
LINE
8
bottom_outsideCutPath
10
257
20
26.9375
11
257
21
37.0625
0
LINE
8
bottom_outsideCutPath
10
257
20
37.0625
11
260
21
37.0625
0
LINE
8
bottom_outsideCutPath
10
260
20
37.0625
11
260
21
47.1875
0
LINE
8
bottom_outsideCutPath
10
260
20
47.1875
11
257
21
47.1875
0
LINE
8
bottom_outsideCutPath
10
257
20
47.1875
11
257
21
57.3125
0
LINE
8
bottom_outsideCutPath
10
257
20
57.3125
11
257
21
58
0
LINE
8
bottom_outsideCutPath
10
257
20
58
11
246.4375
21
58
0
LINE
8
bottom_outsideCutPath
10
246.4375
20
58
11
246.4375
21
61
0
LINE
8
bottom_outsideCutPath
10
246.4375
20
61
11
236.3125
21
61
0
LINE
8
bottom_outsideCutPath
10
236.3125
20
61
11
236.3125
21
58
0
LINE
8
bottom_outsideCutPath
10
236.3125
20
58
11
226.1875
21
58
0
LINE
8
bottom_outsideCutPath
10
226.1875
20
58
11
226.1875
21
61
0
LINE
8
bottom_outsideCutPath
10
226.1875
20
61
11
216.0625
21
61
0
LINE
8
bottom_outsideCutPath
10
216.0625
20
61
11
216.0625
21
58
0
LINE
8
bottom_outsideCutPath
10
216.0625
20
58
11
205.9375
21
58
0
LINE
8
bottom_outsideCutPath
10
205.9375
20
58
11
205.9375
21
61
0
LINE
8
bottom_outsideCutPath
10
205.9375
20
61
11
195.8125
21
61
0
LINE
8
bottom_outsideCutPath
10
195.8125
20
61
11
195.8125
21
58
0
LINE
8
bottom_outsideCutPath
10
195.8125
20
58
11
185.6875
21
58
0
LINE
8
bottom_outsideCutPath
10
185.6875
20
58
11
185.6875
21
61
0
LINE
8
bottom_outsideCutPath
10
185.6875
20
61
11
175.5625
21
61
0
LINE
8
bottom_outsideCutPath
10
175.5625
20
61
11
175.5625
21
58
0
LINE
8
bottom_outsideCutPath
10
175.5625
20
58
11
165.4375
21
58
0
LINE
8
bottom_outsideCutPath
10
165.4375
20
58
11
165
21
58
0
LINE
8
bottom_labelLayer
10
192.8579803
20
28.4487794
11
192.7900115
21
28.4487794
0
LINE
8
bottom_labelLayer
10
192.7900115
20
28.4487794
11
192.5917694
21
27.6501466
0
LINE
8
bottom_labelLayer
10
192.5917694
20
27.6501466
11
191.9177459
21
27.6501466
0
LINE
8
bottom_labelLayer
10
191.9177459
20
27.6501466
11
191.9177459
21
36.4634278
0
LINE
8
bottom_labelLayer
10
191.9177459
20
36.4634278
11
192.8579803
21
36.4634278
0
LINE
8
bottom_labelLayer
10
192.8579803
20
36.4634278
11
192.8579803
21
34.3224122
0
LINE
8
bottom_labelLayer
10
192.8126678
20
33.0310059
11
192.8579803
21
33.0310059
0
ARC
8
bottom_labelLayer
10
194.8346242
20
31.0863727
40
2.8736779
50
74.239318
51
90.5623915
0
ARC
8
bottom_labelLayer
10
195.0246402
20
31.7834541
40
2.1512011
50
38.5631476
51
74.0670241
0
ARC
8
bottom_labelLayer
10
194.5356414
20
31.40323
40
2.7705929
50
16.4709199
51
38.4075285
0
ARC
8
bottom_labelLayer
10
193.1268915
20
30.9614886
40
4.2468484
50
5.1338555
51
16.7973193
0
ARC
8
bottom_labelLayer
10
191.3485105
20
30.7725749
40
6.0350695
50
359.8779287
51
5.4093791
0
ARC
8
bottom_labelLayer
10
191.870862
20
30.7271916
40
5.5128002
50
350.6562705
51
0.3380442
0
ARC
8
bottom_labelLayer
10
193.7927049
20
30.4003058
40
3.5633995
50
335.8306029
51
350.8254882
0
ARC
8
bottom_labelLayer
10
194.638091
20
30.0354266
40
2.6427593
50
321.3161633
51
335.5436024
0
ARC
8
bottom_labelLayer
10
194.961294
20
29.7720664
40
2.2258616
50
274.064011
51
321.4080992
0
ARC
8
bottom_labelLayer
10
194.810725
20
30.7258259
40
3.1889637
50
269.9226133
51
275.5481814
0
ARC
8
bottom_labelLayer
10
194.7905613
20
30.3887535
40
2.8519323
50
255.7755416
51
270.3185607
0
ARC
8
bottom_labelLayer
10
194.7091798
20
30.0271761
40
2.4814634
50
245.9801806
51
255.5455514
0
ARC
8
bottom_labelLayer
10
194.5515398
20
29.6605798
40
2.0824514
50
215.5850317
51
245.8361488
0
ARC
8
bottom_labelLayer
10
173.2548661
20
34.3058397
40
19.6031212
50
358.1123179
51
0.048438
0
ARC
8
bottom_labelLayer
10
178.7107356
20
34.1226682
40
14.1441792
50
355.7238651
51
358.1259045
0
ARC
8
bottom_labelLayer
10
181.1449059
20
33.9552029
40
11.704307
50
355.471089
51
355.6528799
0
ARC
8
bottom_labelLayer
10
194.6114767
20
31.8082455
40
2.1377307
50
95.1835186
51
145.1108939
0
ARC
8
bottom_labelLayer
10
194.7993746
20
30.7486781
40
3.2112419
50
89.8743342
51
96.8145521
0
ARC
8
bottom_labelLayer
10
194.6507959
20
30.5305396
40
2.6421412
50
89.5731327
51
100.7324086
0
ARC
8
bottom_labelLayer
10
194.455204
20
31.5187407
40
1.6348227
50
100.4469375
51
119.6700657
0
ARC
8
bottom_labelLayer
10
194.2738344
20
31.8578356
40
1.2504497
50
120.1403353
51
142.4248668
0
ARC
8
bottom_labelLayer
10
194.5738979
20
31.6593353
40
1.6095166
50
143.338239
51
161.2559945
0
ARC
8
bottom_labelLayer
10
195.8287278
20
31.2138294
40
2.9410133
50
160.8926516
51
171.2334078
0
ARC
8
bottom_labelLayer
10
197.9234823
20
30.8758965
40
5.0628212
50
171.0667735
51
177.8456967
0
ARC
8
bottom_labelLayer
10
200.1018788
20
30.7650947
40
7.2439006
50
177.6176189
51
180.0425358
0
ARC
8
bottom_labelLayer
10
199.0747044
20
30.7354416
40
6.2167715
50
179.7762711
51
185.7075113
0
ARC
8
bottom_labelLayer
10
196.6236305
20
30.4828945
40
3.7527403
50
185.5924632
51
194.2050748
0
ARC
8
bottom_labelLayer
10
195.053528
20
30.075398
40
2.1306712
50
193.9430438
51
208.021841
0
ARC
8
bottom_labelLayer
10
194.4182526
20
29.7522148
40
1.4180971
50
208.5536194
51
217.5605193
0
ARC
8
bottom_labelLayer
10
194.366497
20
29.7306892
40
1.3640247
50
218.1690393
51
253.8047215
0
ARC
8
bottom_labelLayer
10
194.6194974
20
30.5107141
40
2.1838083
50
253.1382375
51
266.8483127
0
ARC
8
bottom_labelLayer
10
194.6904458
20
31.3474568
40
3.0232881
50
266.3776047
51
270.0509943
0
ARC
8
bottom_labelLayer
10
194.7131939
20
30.1984038
40
1.8743412
50
269.3868661
51
285.8631014
0
ARC
8
bottom_labelLayer
10
194.8524451
20
29.6951339
40
1.352179
50
286.0162998
51
326.8497454
0
ARC
8
bottom_labelLayer
10
194.1803479
20
30.1403753
40
2.1583661
50
326.7104769
51
343.6662044
0
ARC
8
bottom_labelLayer
10
192.9221979
20
30.5248262
40
3.4738897
50
343.4171352
51
353.6368954
0
ARC
8
bottom_labelLayer
10
191.0219393
20
30.7503058
40
5.3874481
50
353.4934622
51
0.2205632
0
ARC
8
bottom_labelLayer
10
190.8544206
20
30.7935318
40
5.5549724
50
359.7680627
51
6.3095227
0
ARC
8
bottom_labelLayer
10
192.9468387
20
31.0336484
40
3.4488509
50
6.1648838
51
16.039609
0
ARC
8
bottom_labelLayer
10
194.2947745
20
31.4308818
40
2.0436539
50
15.7779658
51
32.0151059
0
ARC
8
bottom_labelLayer
10
194.7151001
20
31.6715909
40
1.5597586
50
32.7032683
51
35.5240839
0
ARC
8
bottom_labelLayer
10
194.8688418
20
31.7808584
40
1.3711432
50
35.5408484
51
79.8011327
0
ARC
8
bottom_labelLayer
10
194.6847101
20
30.9980725
40
2.1745815
50
78.6781632
51
90.37493
0
ARC
8
bottom_labelLayer
10
199.5277611
20
30.7269753
40
4.8566968
50
349.1761948
51
0.3862642
0
ARC
8
bottom_labelLayer
10
201.1628966
20
30.4010086
40
3.1894653
50
330.2507012
51
349.4116389
0
ARC
8
bottom_labelLayer
10
201.666108
20
30.1394594
40
2.62289
50
318.1439698
51
329.7566127
0
ARC
8
bottom_labelLayer
10
201.7569307
20
30.0666744
40
2.5066847
50
278.895925
51
317.997901
0
ARC
8
bottom_labelLayer
10
201.522916
20
31.187861
40
3.6510304
50
269.7502871
51
279.8033237
0
ARC
8
bottom_labelLayer
10
201.4849626
20
30.5561396
40
3.0193547
50
253.5436974
51
270.4182591
0
ARC
8
bottom_labelLayer
10
201.3844537
20
30.1673466
40
2.6180516
50
238.8115434
51
253.2428422
0
ARC
8
bottom_labelLayer
10
201.3520177
20
30.1021181
40
2.5454607
50
207.7947032
51
238.6757938
0
ARC
8
bottom_labelLayer
10
201.8176983
20
30.3873028
40
3.0905957
50
205.6561432
51
208.4460235
0
ARC
8
bottom_labelLayer
10
202.1759833
20
30.5365664
40
3.4782444
50
188.9102285
51
205.3171516
0
ARC
8
bottom_labelLayer
10
203.3841961
20
30.7412012
40
4.703596
50
179.7744546
51
189.0933033
0
ARC
8
bottom_labelLayer
10
203.5624426
20
30.792783
40
4.881918
50
169.2442965
51
180.3880778
0
ARC
8
bottom_labelLayer
10
201.9045801
20
31.1204831
40
3.1920498
50
150.7111521
51
169.4695575
0
ARC
8
bottom_labelLayer
10
201.3753357
20
31.3922705
40
2.5975917
50
138.1759317
51
150.2287591
0
ARC
8
bottom_labelLayer
10
201.2873055
20
31.4598237
40
2.4869584
50
99.1759329
51
137.9832803
0
ARC
8
bottom_labelLayer
10
201.5296125
20
30.3194946
40
3.6517855
50
89.7326503
51
100.0759677
0
ARC
8
bottom_labelLayer
10
201.5780401
20
30.8119734
40
3.1594228
50
73.5222575
51
90.5692254
0
ARC
8
bottom_labelLayer
10
201.7633223
20
31.4851482
40
2.4613773
50
41.1445628
51
73.2133916
0
ARC
8
bottom_labelLayer
10
201.4096365
20
31.1811589
40
2.9277365
50
13.5014261
51
41.0703576
0
ARC
8
bottom_labelLayer
10
200.0431641
20
30.8235715
40
4.3400257
50
1.1277168
51
13.879994
0
ARC
8
bottom_labelLayer
10
198.8655965
20
30.7604897
40
5.518751
50
359.9919764
51
1.5418977
0
ARC
8
bottom_labelLayer
10
204.4161101
20
30.7352823
40
4.7613175
50
179.7059626
51
187.9160969
0
ARC
8
bottom_labelLayer
10
202.6698102
20
30.4844263
40
2.9971205
50
187.7639216
51
200.097699
0
ARC
8
bottom_labelLayer
10
201.7077745
20
30.1319332
40
1.9725408
50
200.0845567
51
216.9131852
0
ARC
8
bottom_labelLayer
10
201.3564797
20
29.8810915
40
1.5410429
50
217.3009592
51
261.7099089
0
ARC
8
bottom_labelLayer
10
201.5195666
20
30.6593312
40
2.335183
50
260.5033345
51
270.2476504
0
ARC
8
bottom_labelLayer
10
201.5506932
20
30.5079955
40
2.1839268
50
269.4481819
51
284.7255608
0
ARC
8
bottom_labelLayer
10
201.723582
20
29.8668049
40
1.5198558
50
284.5662351
51
322.6333858
0
ARC
8
bottom_labelLayer
10
201.3193596
20
30.1588378
40
2.018401
50
323.0089229
51
342.6390356
0
ARC
8
bottom_labelLayer
10
200.1631831
20
30.5367072
40
3.234697
50
342.3615999
51
353.7537288
0
ARC
8
bottom_labelLayer
10
198.4574725
20
30.7423078
40
4.952687
50
353.5362958
51
0.2013994
0
ARC
8
bottom_labelLayer
10
198.7187976
20
30.78366
40
4.6913922
50
359.707582
51
7.8972516
0
ARC
8
bottom_labelLayer
10
200.4369383
20
31.0299708
40
2.9557145
50
7.7439689
51
20.0690335
0
ARC
8
bottom_labelLayer
10
201.3943335
20
31.3813006
40
1.9358934
50
20.0256802
51
37.4350743
0
ARC
8
bottom_labelLayer
10
201.7119872
20
31.6067043
40
1.5467129
50
37.9577459
51
80.4006414
0
ARC
8
bottom_labelLayer
10
201.5314729
20
30.8012696
40
2.3713742
50
79.3453491
51
90.3175066
0
ARC
8
bottom_labelLayer
10
201.4980464
20
30.9350541
40
2.2376453
50
89.4805752
51
103.8805049
0
ARC
8
bottom_labelLayer
10
201.3100269
20
31.6510309
40
1.4975095
50
103.4685213
51
142.3118755
0
ARC
8
bottom_labelLayer
10
201.6755545
20
31.3939666
40
1.9440327
50
142.9025813
51
162.3749539
0
ARC
8
bottom_labelLayer
10
202.8273385
20
31.0101385
40
3.1580142
50
162.065326
51
173.1674578
0
ARC
8
bottom_labelLayer
10
204.62323
20
30.7810836
40
4.9684206
50
173.0086078
51
180.2464018
0
LINE
8
bottom_labelLayer
10
208.8872772
20
28.4261231
11
208.8872772
21
27.7067872
0
LINE
8
bottom_labelLayer
10
206.1005584
20
29.4343262
11
206.1005584
21
33.127295
0
LINE
8
bottom_labelLayer
10
206.1005584
20
33.127295
11
205.2113006
21
33.127295
0
LINE
8
bottom_labelLayer
10
205.2113006
20
33.127295
11
205.2113006
21
33.58042
0
LINE
8
bottom_labelLayer
10
205.2113006
20
33.58042
11
206.1005584
21
33.9712403
0
LINE
8
bottom_labelLayer
10
206.1005584
20
33.9712403
11
206.4970428
21
35.2966309
0
LINE
8
bottom_labelLayer
10
206.4970428
20
35.2966309
11
207.0407928
21
35.2966309
0
LINE
8
bottom_labelLayer
10
207.0407928
20
35.2966309
11
207.0407928
21
33.8579591
0
LINE
8
bottom_labelLayer
10
207.0407928
20
33.8579591
11
208.8419647
21
33.8579591
0
LINE
8
bottom_labelLayer
10
208.8419647
20
33.8579591
11
208.8419647
21
33.127295
0
LINE
8
bottom_labelLayer
10
208.8419647
20
33.127295
11
207.0407928
21
33.127295
0
LINE
8
bottom_labelLayer
10
207.0407928
20
33.127295
11
207.0407928
21
29.4739747
0
ARC
8
bottom_labelLayer
10
208.0441146
20
31.4007096
40
3.0878744
50
269.8803793
51
278.3028129
0
ARC
8
bottom_labelLayer
10
208.0729123
20
31.1644564
40
2.8499446
50
278.4158024
51
279.0075571
0
ARC
8
bottom_labelLayer
10
207.7271457
20
33.3732763
40
5.0856612
50
278.9588788
51
280.5105149
0
ARC
8
bottom_labelLayer
10
208.0572097
20
31.602319
40
3.2842094
50
280.4847804
51
282.6267579
0
ARC
8
bottom_labelLayer
10
208.3468024
20
30.3157219
40
1.9654247
50
282.5876935
51
285.5794257
0
ARC
8
bottom_labelLayer
10
208.49211
20
29.7813799
40
1.4116934
50
285.7231611
51
286.2556831
0
ARC
8
bottom_labelLayer
10
208.4919813
20
28.5428602
40
0.9248119
50
287.988756
51
295.3048151
0
ARC
8
bottom_labelLayer
10
208.2689244
20
29.2177008
40
1.6355554
50
283.3069254
51
288.1198421
0
ARC
8
bottom_labelLayer
10
208.0332601
20
30.200741
40
2.6464459
50
280.0070691
51
283.3734606
0
ARC
8
bottom_labelLayer
10
207.8753016
20
31.0581137
40
3.5182294
50
279.186537
51
280.1140644
0
ARC
8
bottom_labelLayer
10
207.7788236
20
31.6068533
40
4.0753405
50
275.5260763
51
279.2938744
0
ARC
8
bottom_labelLayer
10
207.8878908
20
30.4677078
40
2.9309864
50
270.893326
51
275.5483211
0
ARC
8
bottom_labelLayer
10
207.901613
20
29.9459069
40
2.4090415
50
270.0027895
51
270.7604899
0
ARC
8
bottom_labelLayer
10
207.8637883
20
29.9923209
40
2.4557487
50
253.7847704
51
270.88527
0
ARC
8
bottom_labelLayer
10
207.5728473
20
29.0001053
40
1.4217616
50
190.3817673
51
253.8772423
0
ARC
8
bottom_labelLayer
10
209.0557721
20
29.4010618
40
2.9554009
50
179.3550946
51
192.8477598
0
ARC
8
bottom_labelLayer
10
208.93408
20
29.4621345
40
1.8933242
50
179.6416892
51
189.7506014
0
ARC
8
bottom_labelLayer
10
208.2656995
20
29.3429205
40
1.2144166
50
189.5479623
51
205.7873436
0
ARC
8
bottom_labelLayer
10
207.9910239
20
29.2162596
40
0.9120093
50
206.1294451
51
221.4083662
0
ARC
8
bottom_labelLayer
10
207.960223
20
29.1928886
40
0.8734547
50
221.5949061
51
262.3505412
0
ARC
8
bottom_labelLayer
10
208.0334715
20
29.5695577
40
1.2567229
50
261.3266194
51
270.1913149
0
LINE
8
bottom_labelLayer
10
212.9823944
20
28.4261231
11
212.9823944
21
27.7067872
0
LINE
8
bottom_labelLayer
10
210.1956756
20
29.4343262
11
210.1956756
21
33.127295
0
LINE
8
bottom_labelLayer
10
210.1956756
20
33.127295
11
209.3064178
21
33.127295
0
LINE
8
bottom_labelLayer
10
209.3064178
20
33.127295
11
209.3064178
21
33.58042
0
LINE
8
bottom_labelLayer
10
209.3064178
20
33.58042
11
210.1956756
21
33.9712403
0
LINE
8
bottom_labelLayer
10
210.1956756
20
33.9712403
11
210.59216
21
35.2966309
0
LINE
8
bottom_labelLayer
10
210.59216
20
35.2966309
11
211.13591
21
35.2966309
0
LINE
8
bottom_labelLayer
10
211.13591
20
35.2966309
11
211.13591
21
33.8579591
0
LINE
8
bottom_labelLayer
10
211.13591
20
33.8579591
11
212.9370819
21
33.8579591
0
LINE
8
bottom_labelLayer
10
212.9370819
20
33.8579591
11
212.9370819
21
33.127295
0
LINE
8
bottom_labelLayer
10
212.9370819
20
33.127295
11
211.13591
21
33.127295
0
LINE
8
bottom_labelLayer
10
211.13591
20
33.127295
11
211.13591
21
29.4739747
0
ARC
8
bottom_labelLayer
10
212.1392318
20
31.4007096
40
3.0878744
50
269.8803793
51
278.3028129
0
ARC
8
bottom_labelLayer
10
212.1680295
20
31.1644564
40
2.8499446
50
278.4158024
51
279.0075571
0
ARC
8
bottom_labelLayer
10
211.8222629
20
33.3732763
40
5.0856612
50
278.9588788
51
280.5105149
0
ARC
8
bottom_labelLayer
10
212.1523268
20
31.602319
40
3.2842094
50
280.4847804
51
282.6267579
0
ARC
8
bottom_labelLayer
10
212.4419196
20
30.3157219
40
1.9654247
50
282.5876935
51
285.5794257
0
ARC
8
bottom_labelLayer
10
212.5872272
20
29.7813799
40
1.4116934
50
285.7231611
51
286.2556831
0
ARC
8
bottom_labelLayer
10
212.5870985
20
28.5428602
40
0.9248119
50
287.988756
51
295.3048151
0
ARC
8
bottom_labelLayer
10
212.3640416
20
29.2177008
40
1.6355554
50
283.3069254
51
288.1198421
0
ARC
8
bottom_labelLayer
10
212.1283773
20
30.200741
40
2.6464459
50
280.0070691
51
283.3734606
0
ARC
8
bottom_labelLayer
10
211.9704188
20
31.0581137
40
3.5182294
50
279.186537
51
280.1140644
0
ARC
8
bottom_labelLayer
10
211.8739408
20
31.6068533
40
4.0753405
50
275.5260763
51
279.2938744
0
ARC
8
bottom_labelLayer
10
211.983008
20
30.4677078
40
2.9309864
50
270.893326
51
275.5483211
0
ARC
8
bottom_labelLayer
10
211.9967302
20
29.9459069
40
2.4090415
50
270.0027895
51
270.7604899
0
ARC
8
bottom_labelLayer
10
211.9589055
20
29.9923209
40
2.4557487
50
253.7847704
51
270.88527
0
ARC
8
bottom_labelLayer
10
211.6679645
20
29.0001053
40
1.4217616
50
190.3817673
51
253.8772423
0
ARC
8
bottom_labelLayer
10
213.1508893
20
29.4010618
40
2.9554009
50
179.3550946
51
192.8477598
0
ARC
8
bottom_labelLayer
10
213.0291971
20
29.4621345
40
1.8933242
50
179.6416892
51
189.7506014
0
ARC
8
bottom_labelLayer
10
212.3608167
20
29.3429205
40
1.2144166
50
189.5479623
51
205.7873436
0
ARC
8
bottom_labelLayer
10
212.0861411
20
29.2162596
40
0.9120093
50
206.1294451
51
221.4083662
0
ARC
8
bottom_labelLayer
10
212.0553402
20
29.1928886
40
0.8734547
50
221.5949061
51
262.3505412
0
ARC
8
bottom_labelLayer
10
212.1285887
20
29.5695577
40
1.2567229
50
261.3266194
51
270.1913149
0
ARC
8
bottom_labelLayer
10
214.7244408
20
30.7269753
40
4.8566968
50
349.1761948
51
0.3862642
0
ARC
8
bottom_labelLayer
10
216.3595763
20
30.4010086
40
3.1894653
50
330.2507012
51
349.4116389
0
ARC
8
bottom_labelLayer
10
216.8627877
20
30.1394594
40
2.62289
50
318.1439698
51
329.7566127
0
ARC
8
bottom_labelLayer
10
216.9536104
20
30.0666744
40
2.5066847
50
278.895925
51
317.997901
0
ARC
8
bottom_labelLayer
10
216.7195957
20
31.187861
40
3.6510304
50
269.7502871
51
279.8033237
0
ARC
8
bottom_labelLayer
10
216.6816423
20
30.5561396
40
3.0193547
50
253.5436974
51
270.4182591
0
ARC
8
bottom_labelLayer
10
216.5811334
20
30.1673466
40
2.6180516
50
238.8115434
51
253.2428422
0
ARC
8
bottom_labelLayer
10
216.5486974
20
30.1021181
40
2.5454607
50
207.7947032
51
238.6757938
0
ARC
8
bottom_labelLayer
10
217.014378
20
30.3873028
40
3.0905957
50
205.6561432
51
208.4460235
0
ARC
8
bottom_labelLayer
10
217.372663
20
30.5365664
40
3.4782444
50
188.9102285
51
205.3171516
0
ARC
8
bottom_labelLayer
10
218.5808757
20
30.7412012
40
4.703596
50
179.7744546
51
189.0933033
0
ARC
8
bottom_labelLayer
10
218.7591223
20
30.792783
40
4.881918
50
169.2442965
51
180.3880778
0
ARC
8
bottom_labelLayer
10
217.1012598
20
31.1204831
40
3.1920498
50
150.7111521
51
169.4695575
0
ARC
8
bottom_labelLayer
10
216.5720154
20
31.3922705
40
2.5975917
50
138.1759317
51
150.2287591
0
ARC
8
bottom_labelLayer
10
216.4839852
20
31.4598237
40
2.4869584
50
99.1759329
51
137.9832803
0
ARC
8
bottom_labelLayer
10
216.7262922
20
30.3194946
40
3.6517855
50
89.7326503
51
100.0759677
0
ARC
8
bottom_labelLayer
10
216.7747198
20
30.8119734
40
3.1594228
50
73.5222575
51
90.5692254
0
ARC
8
bottom_labelLayer
10
216.960002
20
31.4851482
40
2.4613773
50
41.1445628
51
73.2133916
0
ARC
8
bottom_labelLayer
10
216.6063162
20
31.1811589
40
2.9277365
50
13.5014261
51
41.0703576
0
ARC
8
bottom_labelLayer
10
215.2398438
20
30.8235715
40
4.3400257
50
1.1277168
51
13.879994
0
ARC
8
bottom_labelLayer
10
214.0622762
20
30.7604897
40
5.518751
50
359.9919764
51
1.5418977
0
ARC
8
bottom_labelLayer
10
219.6127898
20
30.7352823
40
4.7613175
50
179.7059626
51
187.9160969
0
ARC
8
bottom_labelLayer
10
217.8664899
20
30.4844263
40
2.9971205
50
187.7639216
51
200.097699
0
ARC
8
bottom_labelLayer
10
216.9044542
20
30.1319332
40
1.9725408
50
200.0845567
51
216.9131852
0
ARC
8
bottom_labelLayer
10
216.5531594
20
29.8810915
40
1.5410429
50
217.3009592
51
261.7099089
0
ARC
8
bottom_labelLayer
10
216.7162463
20
30.6593312
40
2.335183
50
260.5033345
51
270.2476504
0
ARC
8
bottom_labelLayer
10
216.7473728
20
30.5079955
40
2.1839268
50
269.4481819
51
284.7255608
0
ARC
8
bottom_labelLayer
10
216.9202617
20
29.8668049
40
1.5198558
50
284.5662351
51
322.6333858
0
ARC
8
bottom_labelLayer
10
216.5160393
20
30.1588378
40
2.018401
50
323.0089229
51
342.6390356
0
ARC
8
bottom_labelLayer
10
215.3598628
20
30.5367072
40
3.234697
50
342.3615999
51
353.7537288
0
ARC
8
bottom_labelLayer
10
213.6541522
20
30.7423078
40
4.952687
50
353.5362958
51
0.2013994
0
ARC
8
bottom_labelLayer
10
213.9154773
20
30.78366
40
4.6913922
50
359.707582
51
7.8972516
0
ARC
8
bottom_labelLayer
10
215.633618
20
31.0299708
40
2.9557145
50
7.7439689
51
20.0690335
0
ARC
8
bottom_labelLayer
10
216.5910132
20
31.3813006
40
1.9358934
50
20.0256802
51
37.4350743
0
ARC
8
bottom_labelLayer
10
216.9086668
20
31.6067043
40
1.5467129
50
37.9577459
51
80.4006414
0
ARC
8
bottom_labelLayer
10
216.7281525
20
30.8012696
40
2.3713742
50
79.3453491
51
90.3175066
0
ARC
8
bottom_labelLayer
10
216.6947261
20
30.9350541
40
2.2376453
50
89.4805752
51
103.8805049
0
ARC
8
bottom_labelLayer
10
216.5067066
20
31.6510309
40
1.4975095
50
103.4685213
51
142.3118755
0
ARC
8
bottom_labelLayer
10
216.8722342
20
31.3939666
40
1.9440327
50
142.9025813
51
162.3749539
0
ARC
8
bottom_labelLayer
10
218.0240182
20
31.0101385
40
3.1580142
50
162.065326
51
173.1674578
0
ARC
8
bottom_labelLayer
10
219.8199097
20
30.7810836
40
4.9684206
50
173.0086078
51
180.2464018
0
LINE
8
bottom_labelLayer
10
230.082199
20
27.6501466
11
229.1419647
21
27.6501466
0
LINE
8
bottom_labelLayer
10
229.1419647
20
27.6501466
11
229.1419647
21
31.6886231
0
LINE
8
bottom_labelLayer
10
226.1230194
20
31.1165528
11
226.1230194
21
27.6501466
0
LINE
8
bottom_labelLayer
10
226.1230194
20
27.6501466
11
225.182785
21
27.6501466
0
LINE
8
bottom_labelLayer
10
225.182785
20
27.6501466
11
225.182785
21
31.6886231
0
LINE
8
bottom_labelLayer
10
222.1695037
20
30.9069825
11
222.1695037
21
27.6501466
0
LINE
8
bottom_labelLayer
10
222.1695037
20
27.6501466
11
221.2292694
21
27.6501466
0
LINE
8
bottom_labelLayer
10
221.2292694
20
27.6501466
11
221.2292694
21
33.8579591
0
LINE
8
bottom_labelLayer
10
221.2292694
20
33.8579591
11
221.9939178
21
33.8579591
0
LINE
8
bottom_labelLayer
10
221.9939178
20
33.8579591
11
222.1468475
21
33.0083497
0
LINE
8
bottom_labelLayer
10
222.1468475
20
33.0083497
11
222.19216
21
33.0083497
0
LINE
8
bottom_labelLayer
10
225.9304412
20
32.9177247
11
225.9757537
21
32.9177247
0
LINE
8
bottom_labelLayer
10
230.082199
20
31.6999512
11
230.082199
21
27.6501466
0
ARC
8
bottom_labelLayer
10
226.3682374
20
31.7033968
40
2.7737666
50
359.6948286
51
8.1471436
0
ARC
8
bottom_labelLayer
10
227.3899083
20
31.8545927
40
1.740987
50
7.9864424
51
20.7949784
0
ARC
8
bottom_labelLayer
10
227.9546511
20
32.070925
40
1.1362314
50
20.7071437
51
40.021784
0
ARC
8
bottom_labelLayer
10
228.0785426
20
32.1519851
40
0.9893839
50
41.0408432
51
73.1792267
0
ARC
8
bottom_labelLayer
10
227.8992707
20
31.6097694
40
1.5603473
50
72.6395853
51
86.2567818
0
ARC
8
bottom_labelLayer
10
227.8418433
20
30.9900923
40
2.1825167
50
85.8144486
51
90.0685968
0
ARC
8
bottom_labelLayer
10
227.8207421
20
30.7533076
40
2.4193705
50
89.5621562
51
101.296194
0
ARC
8
bottom_labelLayer
10
227.6385212
20
31.625655
40
1.5282492
50
101.0032164
51
121.7840484
0
ARC
8
bottom_labelLayer
10
227.4999913
20
31.8729715
40
1.2451168
50
122.3597443
51
140.2884027
0
ARC
8
bottom_labelLayer
10
227.7492234
20
31.6902263
40
1.5537159
50
140.9765286
51
161.1699505
0
ARC
8
bottom_labelLayer
10
228.6881367
20
31.3560877
40
2.5502602
50
160.8731679
51
172.5272688
0
ARC
8
bottom_labelLayer
10
230.2570706
20
31.139407
40
4.1340633
50
172.3776732
51
180.1829507
0
ARC
8
bottom_labelLayer
10
231.4118629
20
31.1165586
40
5.2888435
50
179.8954804
51
180.0000627
0
ARC
8
bottom_labelLayer
10
222.4090577
20
31.7033968
40
2.7737666
50
359.6948286
51
8.1471436
0
ARC
8
bottom_labelLayer
10
223.4307286
20
31.8545927
40
1.740987
50
7.9864424
51
20.7949784
0
ARC
8
bottom_labelLayer
10
223.9954714
20
32.070925
40
1.1362314
50
20.7071437
51
40.021784
0
ARC
8
bottom_labelLayer
10
224.1219399
20
32.1537667
40
0.9862705
50
41.0610742
51
72.8993443
0
ARC
8
bottom_labelLayer
10
223.93927
20
31.6099334
40
1.559844
50
72.3601475
51
85.9561341
0
ARC
8
bottom_labelLayer
10
223.8774359
20
30.9708894
40
2.2017202
50
85.5237631
51
90.0793532
0
ARC
8
bottom_labelLayer
10
223.8563441
20
30.8374006
40
2.3352766
50
89.5573254
51
101.4831952
0
ARC
8
bottom_labelLayer
10
223.6771046
20
31.6771833
40
1.4766449
50
101.1546515
51
123.0655566
0
ARC
8
bottom_labelLayer
10
223.5552658
20
31.8894214
40
1.2323804
50
123.702049
51
142.3022151
0
ARC
8
bottom_labelLayer
10
223.8406618
20
31.6958052
40
1.576739
50
143.076981
51
161.3914173
0
ARC
8
bottom_labelLayer
10
224.9910915
20
31.2894996
40
2.7967354
50
161.0234623
51
171.446896
0
ARC
8
bottom_labelLayer
10
226.8955872
20
30.9911671
40
4.7244347
50
171.3041964
51
178.3501511
0
ARC
8
bottom_labelLayer
10
228.715451
20
30.9098811
40
6.5459479
50
178.0975777
51
180.0253709
0
ARC
8
bottom_labelLayer
10
223.7850447
20
32.0716544
40
1.8478852
50
117.1209589
51
149.5423576
0
ARC
8
bottom_labelLayer
10
223.9736368
20
31.7364558
40
2.2322518
50
93.8343349
51
117.5072168
0
ARC
8
bottom_labelLayer
10
224.0257256
20
31.2751174
40
2.6961235
50
89.9661974
51
94.2831994
0
ARC
8
bottom_labelLayer
10
224.0569356
20
30.8930527
40
3.0783301
50
77.5572132
51
90.5513019
0
ARC
8
bottom_labelLayer
10
224.3425708
20
32.1216203
40
1.8171309
50
52.7027127
51
78.0053737
0
ARC
8
bottom_labelLayer
10
224.4443377
20
32.3109606
40
1.6051999
50
22.2097968
51
51.4970608
0
ARC
8
bottom_labelLayer
10
227.6790294
20
31.9415738
40
1.9631655
50
119.4041786
51
150.1828857
0
ARC
8
bottom_labelLayer
10
227.896795
20
31.6104121
40
2.3587379
50
118.2584774
51
120.0630362
0
ARC
8
bottom_labelLayer
10
227.8961332
20
31.5862783
40
2.3797123
50
95.8635074
51
117.9693366
0
ARC
8
bottom_labelLayer
10
227.976671
20
31.0039522
40
2.9672911
50
89.9196567
51
96.2617911
0
ARC
8
bottom_labelLayer
10
228.0025282
20
30.7029936
40
3.2683187
50
79.9361234
51
90.3803533
0
ARC
8
bottom_labelLayer
10
228.2203015
20
31.8824347
40
2.0689867
50
62.9723388
51
80.1665266
0
ARC
8
bottom_labelLayer
10
228.4479493
20
32.349484
40
1.549526
50
44.2290389
51
62.6228702
0
ARC
8
bottom_labelLayer
10
228.3802438
20
32.3195773
40
1.6191072
50
19.5612185
51
43.3161283
0
ARC
8
bottom_labelLayer
10
227.396879
20
31.9502263
40
2.6694462
50
7.5042116
51
19.9645111
0
ARC
8
bottom_labelLayer
10
225.7697328
20
31.7217248
40
4.3125213
50
359.7107179
51
7.6907551
0
ENDSEC
0
EOF