<?xml version="1.0" standalone="no"?>
<!DOCTYPE svg PUBLIC "-//W3C//DTD SVG 1.1//EN"
  "http://www.w3.org/Graphics/SVG/1.1/DTD/svg11.dtd">
<svg width="27mm" height="26.999999999999993mm" viewBox="2 35.99999999999999 27 26.999999999999993" xmlns="http://www.w3.org/2000/svg" version="1.1">
	<title>svgOutput</title>
	<desc>made with tinkercad</desc>
<path d="M 27.38800048828125 45.63700103759765 L 27.944868087768555 49.15200042724608 L 28 49.499999999999986 L 27.38800048828125 53.36299896240233 L 25.613000869750977 56.8470001220703 L 22.847000122070312 59.61299896240233 L 19.363000869750977 61.388000488281236 L 16.384000778198242 61.859951019287095 L 15.5 61.999999999999986 L 11.63700008392334 61.388000488281236 L 8.152999877929688 59.61299896240233 L 5.38700008392334 56.8470001220703 L 3.611999988555908 53.36299896240233 L 3 49.499999999999986 L 3.0551323890686035 49.15200042724608 L 3.611999988555908 45.63700103759765 L 5.38700008392334 42.15299987792968 L 8.152999877929688 39.38700103759765 L 11.63700008392334 37.61199951171874 L 15.5 36.99999999999999 L 16.384000778198242 37.14004898071288 L 19.363000869750977 37.61199951171874 L 22.847000122070312 39.38700103759765 L 25.613000869750977 42.15299987792968 L 27.38800048828125 45.63700103759765 M 13.119999885559082 48.72700119018553 L 13.052923202514648 49.15200042724608 L 12.998000144958496 49.499999999999986 L 13.119999885559082 50.27299880981444 L 13.475000381469727 50.971000671386705 L 14.029000282287598 51.52500152587889 L 14.72700023651123 51.88000106811522 L 15.5 52.00199890136717 L 16.273000717163086 51.88000106811522 L 16.384000778198242 51.823547363281236 L 16.97100067138672 51.52500152587889 L 17.524999618530273 50.971000671386705 L 17.8799991607666 50.27299880981444 L 18.003000259399414 49.499999999999986 L 17.9476261138916 49.15200042724608 L 17.8799991607666 48.72700119018553 L 17.524999618530273 48.02899932861327 L 16.97100067138672 47.47499847412109 L 16.384000778198242 47.17645263671874 L 16.273000717163086 47.11999893188476 L 15.5 46.998001098632805 L 14.72700023651123 47.11999893188476 L 14.029000282287598 47.47499847412109 L 13.475000381469727 48.02899932861327 L 13.119999885559082 48.72700119018553 z" fill="none" stroke="rgb(255,0,0)" stroke-width="0.001mm" />
</svg>